<svg width="32" height="32" viewBox="0 0 32 32" fill="none" xmlns="http://www.w3.org/2000/svg">
<g clip-path="url(#clip0_1_888)">
<path d="M16.0001 0.755737C7.43136 0.755737 0.484863 7.70224 0.484863 16.271C0.484863 23.9561 6.07842 30.3207 13.4125 31.5532V19.5078H9.66975V15.1733H13.4125V11.9771C13.4125 8.26859 15.6775 6.24768 18.9862 6.24768C20.5709 6.24768 21.9327 6.36576 22.3281 6.41777V10.2942L20.0333 10.2952C18.2342 10.2952 17.8874 11.1499 17.8874 12.4046V15.1711H22.18L21.6201 19.5057H17.8874V31.6569C25.5638 30.7226 31.5152 24.1958 31.5152 16.2665C31.5152 7.70224 24.5686 0.755737 16.0001 0.755737Z" fill="black"/>
</g>
<defs>
<clipPath id="clip0_1_888">
<rect width="32" height="32" fill="white"/>
</clipPath>
</defs>
</svg>
