<svg width="48" height="49" viewBox="0 0 48 49" fill="none" xmlns="http://www.w3.org/2000/svg">
<path fill-rule="evenodd" clip-rule="evenodd" d="M28.8808 10.5918C29.4998 11.0778 29.6076 11.9736 29.1216 12.5926C28.6356 13.2116 27.7398 13.3194 27.1208 12.8334C26.5018 12.3474 26.394 11.4516 26.88 10.8326C27.3661 10.2136 28.2619 10.1058 28.8808 10.5918ZM19.1216 18.5926C19.6076 17.9736 19.4998 17.0778 18.8808 16.5918C18.2619 16.1058 17.3661 16.2136 16.88 16.8326C16.394 17.4516 16.5018 18.3474 17.1208 18.8334C17.7398 19.3194 18.6356 19.2116 19.1216 18.5926ZM29.15 41.7112H26.85V17.7112H29.15V41.7112ZM19.15 25.7112V41.7112H16.85V25.7112H19.15ZM9.15 29.7112V41.7112H6.85V29.7112H9.15ZM4.15 41.7112V34.2112H1.85V41.7112H4.15ZM1 45.8612H30V43.5612H1V45.8612ZM14.15 41.7112V31.7112H11.85V41.7112H14.15ZM24.15 41.7112V27.7112H21.85V41.7112H24.15ZM8.88085 19.5918C9.49984 20.0778 9.60764 20.9736 9.12161 21.5926C8.63559 22.2116 7.73979 22.3194 7.12079 21.8334C6.5018 21.3474 6.394 20.4516 6.88003 19.8326C7.36606 19.2136 8.26185 19.1058 8.88085 19.5918Z" fill="#4E66FF"/>
</svg>
