<svg width="320" height="619" viewBox="0 0 320 619" fill="none" xmlns="http://www.w3.org/2000/svg">
<g clip-path="url(#clip0_14_16)">
<path opacity="0.3" d="M-32.4228 492.563L-131.98 263.015C-137.986 249.071 -145.452 236.62 -154.079 226.078L-32.4228 492.563ZM-330 0L-291.516 32.0026C-277.727 43.4698 -262.363 50.453 -246.501 52.4622L17.9082 85.9542L-330 0ZM-182.871 123.659L298.826 514.781L-182.871 123.659ZM163.518 492.032L-26.4149 334.087C-27.3824 333.282 -28.465 334.843 -27.9053 336.236L13.5 439.248C16.5692 446.882 20.9742 453.221 26.2793 457.631L163.518 492.032ZM-14.0402 199.912L-29.8994 186.541L-14.0402 199.912ZM-13.0851 144.752L-12.3959 154.117L-13.0851 144.752ZM0.275511 164.793L-12.3256 154.167C-12.3778 154.124 -12.4446 154.149 -12.4751 154.224L-13.6372 157.084C-13.6678 157.159 -13.6503 157.255 -13.5984 157.299L-0.996688 167.924L0.275511 164.793ZM-0.866277 168.131L-12.9576 157.937C-13.0097 157.893 -13.0765 157.918 -13.1071 157.994L-14.2692 160.853C-14.2997 160.928 -14.2823 161.024 -14.2301 161.068L-2.48196 170.974L-0.866277 168.131ZM-2.2975 171.126L-13.6026 161.593C-13.6547 161.549 -13.7215 161.575 -13.7517 161.649L-14.9142 164.509C-14.9447 164.584 -14.9272 164.68 -14.8751 164.724L-3.5697 174.257L-2.2975 171.126ZM-3.63011 174.407L-14.1776 165.514C-14.2294 165.47 -14.2962 165.495 -14.3268 165.57L-15.4892 168.43C-15.5195 168.505 -15.502 168.601 -15.4501 168.645L-4.90233 177.538L-3.63011 174.407ZM-4.93094 177.614L-14.6245 169.442C-14.6763 169.398 -14.7434 169.424 -14.7736 169.498L-15.9361 172.358C-15.9663 172.433 -15.9488 172.53 -15.897 172.574L-6.20632 180.745L-4.93094 177.614ZM-6.23496 180.817L-15.0179 173.413C-15.0701 173.369 -15.1368 173.395 -15.1674 173.469L-16.3295 176.329C-16.3601 176.404 -16.3426 176.5 -16.2904 176.544L-7.51032 183.948L-6.23496 180.817ZM-8.83977 187.229L-16.0321 181.166C-16.0843 181.122 -16.1511 181.147 -16.1816 181.222L-17.3438 184.082C-17.3743 184.157 -17.3568 184.253 -17.3047 184.297L-10.112 190.36L-8.83977 187.229ZM-10.112 190.361L-16.3674 185.088C-16.4192 185.044 -16.4863 185.069 -16.5165 185.144L-17.679 188.004C-17.7096 188.079 -17.692 188.176 -17.6399 188.219L-11.3873 193.492L-10.112 190.361ZM-11.416 193.566L-16.9993 188.859C-17.0515 188.815 -17.1183 188.84 -17.1488 188.915L-18.311 191.775C-18.3415 191.85 -18.324 191.946 -18.2718 191.99L-12.6888 196.697L-11.416 193.566ZM-12.7178 196.771L-17.6758 192.591C-17.7277 192.547 -17.7948 192.572 -17.825 192.647L-18.9875 195.507C-19.018 195.582 -19.0005 195.678 -18.9483 195.722L-13.9903 199.902L-12.7178 196.771ZM-7.53895 184.023L-15.6651 177.171C-15.7173 177.127 -15.7841 177.152 -15.8146 177.227L-16.9768 180.087C-17.0073 180.162 -16.9898 180.258 -16.9376 180.302L-8.81115 187.154L-7.53895 184.023ZM-145.613 352.238L-154.883 329.384L-145.613 352.238ZM-183.909 353.572L-177.408 354.573L-183.909 353.572ZM-170.009 372.836L-177.375 354.675C-177.405 354.601 -177.388 354.504 -177.336 354.46L-175.349 352.789C-175.297 352.745 -175.23 352.77 -175.2 352.845L-167.833 371.005L-170.009 372.836ZM-167.689 371.188L-174.756 353.765C-174.787 353.69 -174.769 353.593 -174.717 353.55L-172.731 351.878C-172.679 351.834 -172.612 351.859 -172.582 351.934L-165.713 368.866L-167.689 371.188ZM-165.608 369.131L-172.217 352.838C-172.247 352.763 -172.23 352.667 -172.178 352.623L-170.191 350.951C-170.139 350.907 -170.073 350.933 -170.042 351.008L-163.433 367.3L-165.608 369.131ZM-163.329 367.215L-169.494 352.015C-169.525 351.94 -169.507 351.844 -169.455 351.8L-167.469 350.128C-167.416 350.084 -167.35 350.109 -167.319 350.185L-161.154 365.384L-163.329 367.215ZM-161.103 365.34L-166.768 351.374C-166.799 351.299 -166.781 351.202 -166.729 351.158L-164.743 349.487C-164.69 349.443 -164.624 349.469 -164.593 349.543L-158.928 363.509L-161.103 365.34ZM-158.875 363.465L-164.008 350.81C-164.038 350.735 -164.021 350.639 -163.969 350.595L-161.982 348.923C-161.93 348.879 -161.863 348.905 -161.833 348.98L-156.7 361.634L-158.875 363.465ZM-154.422 359.715L-158.626 349.352C-158.656 349.277 -158.638 349.181 -158.586 349.137L-156.6 347.465C-156.548 347.421 -156.481 347.446 -156.45 347.522L-152.247 357.884L-154.422 359.715ZM-152.247 357.887L-155.903 348.875C-155.934 348.8 -155.916 348.704 -155.864 348.66L-153.877 346.988C-153.825 346.944 -153.758 346.97 -153.728 347.045L-150.072 356.057L-152.247 357.887ZM-150.019 356.013L-153.283 347.967C-153.313 347.892 -153.296 347.796 -153.244 347.752L-151.257 346.08C-151.205 346.036 -151.138 346.062 -151.108 346.136L-147.844 354.182L-150.019 356.013ZM-147.795 354.138L-150.693 346.993C-150.723 346.918 -150.706 346.822 -150.654 346.778L-148.667 345.106C-148.615 345.062 -148.548 345.088 -148.518 345.163L-145.62 352.307L-147.795 354.138ZM-156.648 361.591L-161.398 349.88C-161.429 349.805 -161.411 349.709 -161.359 349.665L-159.373 347.993C-159.321 347.949 -159.254 347.975 -159.223 348.049L-154.473 359.761L-156.648 361.591ZM54.5189 446.07L90.2359 475.774L54.5189 446.07ZM95.9417 480.515L129.579 508.487L95.9417 480.515ZM92.6881 494.721L99.2812 468.856C99.3035 468.764 99.3798 468.723 99.4371 468.774L127.788 492.348C127.817 492.371 127.836 492.412 127.839 492.458L131.745 527.2L92.6881 494.721ZM42.8051 453.141L64.248 439.488C64.283 439.468 64.318 439.471 64.3498 439.496L94.5836 464.637C94.6345 464.683 94.6536 464.774 94.625 464.848L85.6432 488.765L42.8051 453.141ZM97.8786 441.659L92.7803 454.377C92.7485 454.453 92.7676 454.549 92.8185 454.592L105.366 465.026C105.429 465.077 105.512 465.026 105.528 464.921L107.649 449.935L97.8786 441.659ZM-12.4617 487.116L31.9246 459.295C31.9564 459.277 31.9946 459.277 32.0233 459.305L58.8221 481.587C58.8857 481.642 58.8953 481.77 58.8412 481.839L28.1494 522.244L-12.4617 487.116ZM29.6538 461.023L57.0347 483.79L29.6538 461.023ZM64.2067 489.755L80.5735 503.365L64.2067 489.755ZM39.1221 529.816L66.0196 487.524C66.0546 487.469 66.1118 487.455 66.1563 487.492L81.445 500.209C81.4959 500.25 81.515 500.346 81.4863 500.42L62.9631 549.647L39.1221 529.816ZM43.3108 501.698L9.48307 473.565L43.6193 501.954L43.3108 501.698ZM139.979 611.854L134.75 544.608C134.747 544.558 134.725 544.517 134.696 544.489L116.873 529.67C116.803 529.61 116.714 529.679 116.71 529.798L114.481 592.485L139.979 611.854ZM134.96 548.75L116.418 532.982L134.96 548.75ZM137.317 579.076L115.546 560.972L137.317 579.076ZM52.4675 509.311L71.9671 525.524L52.4675 509.311ZM106.243 524.713L89.0686 510.429L106.243 524.713ZM100.197 580.611L106.641 521.277C106.647 521.213 106.625 521.149 106.587 521.117L90.1087 507.415C90.0514 507.364 89.9783 507.401 89.9528 507.493L75.7265 560.262L100.197 580.611ZM103.298 551.581L82.5296 534.31L103.298 551.581ZM26.8009 456.629L29.6665 449.48C29.6824 449.444 29.7047 449.418 29.7333 449.407L35.3755 447.163C35.4041 447.152 35.4359 447.157 35.4614 447.178L138.64 532.982C138.662 533 138.678 533.027 138.688 533.06L141.152 542.061C141.165 542.107 141.162 542.157 141.146 542.199L138.026 549.982L26.8009 456.629ZM61.2202 437.579L63.138 432.799C63.1667 432.723 63.2335 432.697 63.2876 432.741L133.262 490.932C133.313 490.973 133.332 491.07 133.3 491.143L130.879 497.185L61.2202 437.579ZM107.773 450.388L126.023 465.562C126.048 465.585 126.067 465.622 126.074 465.663L129.798 487.748C129.82 487.881 129.719 487.991 129.636 487.922L66.5794 435.481C66.503 435.418 66.5062 435.258 66.5857 435.203L79.101 426.623C79.1328 426.6 79.1709 426.602 79.2027 426.628L97.9073 442.182L107.773 450.388ZM16.3498 231.668L15.6628 233.383C15.6341 233.458 15.65 233.555 15.7041 233.598L39.9363 253.749C39.9872 253.793 40.054 253.767 40.0858 253.692L40.9 251.659L16.3498 231.668ZM29.0081 256.474L28.3212 258.19C28.2893 258.265 28.3084 258.361 28.3593 258.404L48.0911 274.813C48.1452 274.857 48.212 274.831 48.2406 274.755L49.0548 272.723L29.0081 256.474ZM23.1179 227.905L27.9904 241.285L23.1179 227.905ZM33.5086 251.15L38.1839 263.928L33.5086 251.15ZM12.3964 164.708L-1.67095 199.801L12.3964 164.708ZM-2.95903 198.977L38.8677 284.195C38.8868 284.233 38.9122 284.264 38.9377 284.286L52.8428 295.848C53.0272 296.004 53.2404 295.718 53.1481 295.439L49.6496 285.067C49.5573 284.788 49.7704 284.502 49.9549 284.657L55.0341 288.879C55.0755 288.914 55.1073 288.968 55.1264 289.033L58.2687 300.285C58.2878 300.351 58.3196 300.405 58.3641 300.44L67.9406 308.405L-2.95903 198.977ZM21.5244 188.167L96.67 250.658C96.775 250.745 96.9086 250.693 96.969 250.543L137.352 149.799L21.5244 188.167ZM70.0524 197.55L84.5778 303.107L70.0524 197.55ZM38.3715 171.126L71.2197 292.6L38.3715 171.126ZM85.8054 309.322L88.0413 322.188C88.0573 322.285 88.0413 322.387 88 322.464L86.7723 324.628L85.8054 309.322ZM86.6992 324.573L83.5569 307.766C83.5314 307.63 83.6332 307.518 83.7159 307.59L92.2364 314.894C92.2905 314.94 92.3255 315.017 92.3382 315.105L94.4055 330.805L86.6992 324.573ZM57.5881 281.724L99.9014 315.251C100.006 315.333 100.137 315.281 100.194 315.133L147.03 198.295L57.5881 281.724ZM125.991 334.055L122.502 348.774C122.47 348.916 122.512 349.073 122.601 349.148L134.022 358.646L125.991 334.055ZM134.022 358.646L140.062 345.734C140.125 345.597 140.252 345.555 140.351 345.637L152.246 355.527L134.022 358.646ZM134.022 358.646L143.636 366.641L134.022 358.646ZM152.246 355.527L164.822 365.986C164.965 366.106 164.968 366.405 164.825 366.528L154.479 375.471C154.412 375.53 154.326 375.531 154.259 375.474L143.636 366.641L152.246 355.527ZM152.246 355.527L143.636 366.641L152.246 355.527ZM124.941 333.183L121.109 349.636C121.077 349.778 121.119 349.934 121.208 350.009L154.644 377.814C154.711 377.869 154.79 377.87 154.857 377.818L167.306 368.065L124.941 333.183ZM132.587 313.527L128.548 328.892C128.51 329.037 128.548 329.199 128.644 329.276L168.145 362.126C168.212 362.182 168.295 362.183 168.365 362.127L179.738 352.738L132.587 313.527ZM148.716 326.807L142.253 340.595L148.716 326.807ZM164.345 339.94L155.353 351.624L164.345 339.94ZM128.415 315.053L122.314 330.266C122.257 330.417 122.292 330.609 122.397 330.696L169.802 370.118C169.904 370.204 170.038 370.153 170.098 370.002L172.907 363.001L128.415 315.053ZM129.283 310.781L125.46 329.32C125.431 329.459 125.473 329.609 125.558 329.682L168.944 365.76C169.007 365.813 169.087 365.816 169.154 365.767L182.97 355.426L129.283 310.781ZM185.552 357.169L185.648 352.255L185.552 357.169ZM133.472 292.208L126.983 308.398C126.923 308.548 126.958 308.74 127.063 308.827L185.514 357.435C185.619 357.522 185.753 357.47 185.813 357.32L188.675 350.181L133.472 292.208ZM183.16 315.13L169.793 332.981L183.16 315.13ZM136.318 276.688L130.708 306.433C130.682 306.571 130.724 306.716 130.809 306.788L185.587 352.341C185.654 352.396 185.733 352.397 185.8 352.345L207.192 335.626L136.318 276.688ZM220.372 74.1942L142.479 268.516C142.421 268.667 142.456 268.859 142.561 268.946L209.199 324.363C209.304 324.45 209.438 324.398 209.498 324.248L321 46.0735L220.372 74.1942ZM223.152 54.4243L136.458 270.704C136.398 270.854 136.436 271.046 136.538 271.133L210.894 332.967C210.999 333.054 211.133 333.002 211.193 332.852L297.887 116.573L223.152 54.4243ZM136.789 271.378L134.365 273.987C134.241 274.122 134.254 274.398 134.388 274.511L210.882 338.123C211.031 338.246 211.216 338.086 211.209 337.84L211.098 333.149L136.789 271.378ZM140.663 279.82L134.83 303.718C134.795 303.861 134.836 304.019 134.928 304.095L186.042 346.601C186.109 346.657 186.191 346.658 186.258 346.603L203.808 332.331L140.663 279.82ZM162.141 297.956L152.904 318.634L162.141 297.956ZM126.948 308.442L130.698 306.624L126.948 308.442ZM122.782 133.724L93.4577 206.888C93.3973 207.038 93.2637 207.09 93.1588 207.003L0.704909 130.119C0.599953 130.032 0.561784 129.84 0.622213 129.689L29.9496 56.526L122.782 133.724ZM3.79953 142.429L68.1823 308.999C68.2014 309.049 68.23 309.09 68.265 309.119L101.03 336.366C101.135 336.453 101.269 336.402 101.329 336.251L140.679 238.084C140.688 238.057 140.698 238.028 140.701 237.998L158.429 127.143L3.79953 142.429ZM3.72638 142.348L95.0543 218.297C95.1593 218.383 95.2929 218.332 95.3533 218.181L132.384 125.798L3.72638 142.348ZM95.1593 218.009L101.205 336.545L95.1593 218.009ZM39.7073 235.548L98.1522 284.151C98.2571 284.239 98.3939 284.186 98.4511 284.033L145.093 163.927L39.7073 235.548ZM48.3137 257.488L98.9727 299.617C99.0777 299.703 99.2112 299.652 99.2717 299.501L147.644 178.823L48.3137 257.488ZM11.5504 163.112L-2.76821 198.833C-2.82864 198.984 -2.79365 199.176 -2.6887 199.263L39.1444 234.049L11.5504 163.112ZM-54.0502 505.161L32.3635 453.11C32.3922 453.091 32.4304 453.094 32.459 453.118L136.662 539.775C136.69 539.798 136.709 539.835 136.716 539.881L146.702 619L-54.0502 505.161ZM5.00495 160.034L2.93126 158.287C2.88037 158.243 2.81355 158.268 2.78174 158.344L-25.206 227.213C-25.2365 227.288 -25.3033 227.313 -25.3551 227.269L-40.994 214.084C-41.0458 214.04 -41.0633 213.944 -41.0331 213.869L-13.045 144.999C-13.0148 144.925 -13.0323 144.828 -13.0841 144.785L-14.9829 143.183C-15.0347 143.14 -15.1019 143.165 -15.1321 143.24L-44.2909 214.99C-44.3214 215.065 -44.3039 215.162 -44.2517 215.205L-24.2652 232.056C-24.213 232.1 -24.1462 232.075 -24.1157 232L5.04311 160.25C5.07492 160.175 5.05584 160.078 5.00495 160.034ZM-173.315 379.638L-174.526 376.651C-174.556 376.576 -174.539 376.48 -174.487 376.436L-126.65 336.179C-126.598 336.135 -126.58 336.039 -126.611 335.964L-135.752 313.428C-135.783 313.353 -135.849 313.328 -135.902 313.372L-183.738 353.629C-183.79 353.673 -183.857 353.647 -183.888 353.572L-184.998 350.836C-185.028 350.761 -185.01 350.665 -184.959 350.621L-135.12 308.68C-135.068 308.637 -135.002 308.662 -134.971 308.737L-123.288 337.539C-123.258 337.613 -123.275 337.71 -123.327 337.753L-173.165 379.694C-173.217 379.738 -173.284 379.713 -173.315 379.638ZM39.2398 450.025L64.035 436.048C64.0668 436.03 64.1017 436.034 64.1304 436.058L129.798 490.666C129.824 490.689 129.843 490.726 129.849 490.767L136.064 530.531C136.083 530.668 135.984 530.774 135.901 530.705L39.2239 450.307C39.1444 450.241 39.1539 450.073 39.2398 450.025ZM37.023 275.234L39.7487 281.664C39.7582 281.687 39.771 281.706 39.7869 281.719L48.0053 288.554C48.1007 288.634 48.2088 288.482 48.1579 288.343L45.8552 282.263C45.8457 282.237 45.8298 282.216 45.8139 282.202L37.1725 275.015C37.0739 274.934 36.9657 275.095 37.023 275.234ZM22.7076 242.512L29.0559 256.433C29.0654 256.454 29.0781 256.47 29.094 256.483L49.0993 273.119C49.1947 273.198 49.2997 273.05 49.2488 272.91L44.7548 260.53C44.7453 260.504 44.7293 260.482 44.7103 260.467L22.8539 242.289C22.7521 242.206 22.644 242.374 22.7076 242.512ZM16.3275 231.546L9.40993 216.858C9.34632 216.719 9.45444 216.55 9.55622 216.633L35.8748 238.521C35.8907 238.535 35.9066 238.555 35.9162 238.58L41.1831 251.895C41.2403 252.035 41.1322 252.19 41.0336 252.11L16.3657 231.594C16.3498 231.583 16.3371 231.566 16.3275 231.546ZM65.5552 293.528L79.7625 305.342C79.807 305.379 79.8389 305.437 79.8579 305.506L81.1779 310.636C81.2128 310.774 81.1079 310.9 81.0188 310.826L67.7371 299.781C67.7021 299.752 67.6735 299.71 67.6544 299.66L65.4057 293.74C65.3517 293.6 65.4598 293.448 65.5552 293.528Z" stroke="#4E66FF"/>
</g>
<defs>
<clipPath id="clip0_14_16">
<rect width="320" height="619" fill="white"/>
</clipPath>
</defs>
</svg>
