<svg width="1440" height="750" viewBox="0 0 1440 750" fill="none" xmlns="http://www.w3.org/2000/svg">
<g clip-path="url(#clip0_1_590)">
<g opacity="0.2">
<path d="M1078 1.5496e-06H1325C1326.66 1.5496e-06 1328 1.20774 1328 2.69524V490.305C1328 491.792 1326.66 493 1325 493H1078C1076.34 493 1075 491.792 1075 490.305V2.69524C1075 1.20774 1076.34 1.5496e-06 1078 1.5496e-06Z" fill="#FFEA30"/>
</g>
<path d="M1323.14 497.747C1328.67 497.747 1333.14 493.27 1333.14 487.747V420.012H1323.14V487.747H1249.77V497.747H1323.14ZM1069.14 487.748C1069.14 493.271 1073.61 497.748 1079.14 497.748H1146.87V487.748H1079.14V397.434H1069.14V487.748Z" fill="#FFEA30"/>
<g opacity="0.2">
<path d="M1325.59 750H1078.21C1076.56 750 1075.21 749.434 1075.21 748.737V520.268C1075.21 519.571 1076.56 519.005 1078.21 519.005H1325.59C1327.24 519.005 1328.59 519.571 1328.59 520.268V748.737C1328.59 749.434 1327.24 750 1325.59 750Z" fill="#FFEA30"/>
</g>
<path d="M1080.19 516.919C1074.67 516.919 1070.19 518.804 1070.19 521.129V549.642H1080.19V521.129H1153.57V516.919H1080.19ZM1334.2 521.128C1334.2 518.803 1329.72 516.919 1324.2 516.919H1256.46V521.128H1324.2V559.146H1334.2V521.128Z" fill="#FFEA30"/>
<g opacity="0.999991">
<path d="M1262.39 519.387H1325.97V596.955H1323.97V521.387H1262.39V519.387ZM1074.49 596.29V520.719H1140.07V522.719H1076.49V596.29H1074.49Z" fill="#FFEA30"/>
</g>
<path d="M391.754 382.301C384.987 383.857 373.457 385.731 360.929 386.278C348.384 386.826 334.943 386.036 324.294 382.333L323.593 384.074C334.616 387.907 348.373 388.687 361.022 388.136C373.688 387.583 385.348 385.689 392.234 384.106L391.754 382.301ZM289.852 366.448C289.613 365.116 289.578 363.085 290.345 361.369C290.736 360.495 291.351 359.666 292.289 359.08C293.234 358.49 294.426 358.196 295.868 358.267C297.862 358.364 299.583 359.618 301.046 361.125C302.534 362.658 303.941 364.651 305.267 366.559C305.355 366.686 305.443 366.812 305.53 366.938C306.781 368.74 307.959 370.438 309.127 371.721C309.748 372.403 310.333 372.93 310.883 373.28C311.431 373.629 311.892 373.771 312.291 373.771C315.371 373.771 318.693 375.764 321.144 378.508C323.622 381.283 325.405 385.032 325.226 388.867L323.228 388.786C323.381 385.523 321.85 382.211 319.605 379.696C317.333 377.152 314.521 375.631 312.291 375.631C311.363 375.631 310.511 375.298 309.752 374.815C308.996 374.333 308.28 373.669 307.6 372.922C306.345 371.542 305.098 369.745 303.872 367.978C303.777 367.841 303.682 367.705 303.587 367.568C302.246 365.639 300.923 363.774 299.561 362.371C298.174 360.942 296.923 360.18 295.763 360.124C294.682 360.071 293.934 360.292 293.404 360.624C292.866 360.96 292.47 361.46 292.192 362.083C291.621 363.36 291.621 365.003 291.825 366.141L289.852 366.448ZM425.116 366.448C425.355 365.116 425.39 363.085 424.623 361.369C424.232 360.495 423.617 359.666 422.679 359.08C421.734 358.49 420.542 358.196 419.1 358.267C417.106 358.364 415.385 359.618 413.922 361.125C412.434 362.658 411.026 364.651 409.7 366.559C409.612 366.686 409.524 366.812 409.437 366.938C408.186 368.74 407.008 370.438 405.84 371.721C405.219 372.403 404.635 372.93 404.085 373.28C403.537 373.629 403.075 373.771 402.676 373.771C399.596 373.771 396.275 375.764 393.824 378.508C391.346 381.283 389.563 385.032 389.742 388.867L391.74 388.786C391.587 385.523 393.117 382.211 395.362 379.696C397.634 377.152 400.446 375.631 402.676 375.631C403.604 375.631 404.456 375.298 405.215 374.815C405.971 374.333 406.687 373.669 407.367 372.922C408.622 371.542 409.87 369.745 411.096 367.978C411.191 367.841 411.285 367.705 411.38 367.568C412.721 365.639 414.044 363.774 415.406 362.371C416.793 360.942 418.045 360.18 419.205 360.124C420.286 360.071 421.033 360.292 421.563 360.624C422.101 360.96 422.498 361.46 422.776 362.083C423.347 363.36 423.347 365.003 423.143 366.141L425.116 366.448ZM302.096 97.4554C302.096 98.4727 303.13 99.25 304.234 99.0297C316.356 96.6055 339.279 93.3547 358.14 92.6973L358.215 94.5551C339.492 95.207 316.687 98.4429 304.655 100.848C302.34 101.312 300.096 99.6899 300.096 97.4554V42.8946C300.096 41.3678 301.179 40.0093 302.784 39.6048C313.9 36.8022 337.963 32.045 359.586 32.045V33.9047C338.211 33.9047 314.34 38.6182 303.308 41.3994C302.595 41.5789 302.096 42.1879 302.096 42.8946V97.4554ZM413.496 97.4554C413.496 98.4727 412.462 99.25 411.358 99.0297C399.236 96.6055 376.314 93.3547 357.453 92.6973L357.378 94.5551C376.101 95.207 398.906 98.4429 410.938 100.848C413.253 101.312 415.496 99.6899 415.496 97.4554V42.8946C415.496 41.3678 414.413 40.0093 412.808 39.6048C401.692 36.8022 377.63 32.045 356.007 32.045V33.9047C377.382 33.9047 401.253 38.6182 412.285 41.3994C412.998 41.5789 413.496 42.1879 413.496 42.8946V97.4554ZM287.762 180.812C286.68 181.141 285.567 180.392 285.567 179.333V94.3032C285.567 92.8423 287.655 92.0966 288.585 93.4793C292.422 99.1877 298.686 111.234 300.292 125.006L300.298 125.057V175.873C300.298 176.546 299.832 177.143 299.144 177.352L287.762 180.812ZM287.567 95.5027V178.914L298.298 175.652V125.157C296.816 112.547 291.314 101.389 287.567 95.5027ZM288.204 282.259C287.774 284.077 284.895 283.786 284.895 281.924V194.113C284.895 192.849 285.64 191.688 286.836 191.088L295.345 186.819C297.808 185.583 300.797 187.243 300.797 189.845V228.575C300.797 228.823 300.768 229.07 300.711 229.312L288.204 282.259ZM286.895 194.113V279.132L298.758 228.913C298.784 228.802 298.797 228.688 298.797 228.575V189.845C298.797 188.651 297.425 187.888 296.295 188.456L287.786 192.725C287.237 193 286.895 193.533 286.895 194.113ZM287.215 116.115L299.801 124.266L298.657 125.792L286.072 117.641L287.215 116.115ZM427.844 180.814C428.926 181.143 430.038 180.394 430.038 179.335V94.305C430.038 92.8442 427.95 92.0985 427.02 93.4812C423.183 99.1896 416.92 111.236 415.314 125.008L415.308 125.058V175.875C415.308 176.548 415.774 177.145 416.462 177.354L427.844 180.814ZM428.038 95.5045V178.917L417.308 175.655V125.16C418.79 112.55 424.291 101.391 428.038 95.5045ZM427.396 282.26C427.826 284.079 430.705 283.789 430.705 281.927V194.116C430.705 192.852 429.96 191.69 428.764 191.09L420.254 186.822C417.791 185.586 414.803 187.245 414.803 189.847V228.577C414.803 228.826 414.832 229.073 414.889 229.315L427.396 282.26ZM428.705 194.116V279.135L416.842 228.916C416.816 228.804 416.803 228.691 416.803 228.577V189.847C416.803 188.653 418.175 187.891 419.305 188.458L427.814 192.727C428.363 193.002 428.705 193.536 428.705 194.116ZM428.384 116.119L415.799 124.27L416.942 125.796L429.527 117.645L428.384 116.119ZM300.703 312.535C312.22 317.07 333.185 323.003 357.687 323.273L357.664 325.133C332.85 324.859 311.627 318.856 299.923 314.248C295.512 312.511 292.749 308.595 292.214 304.258L290.955 294.056C290.791 292.731 290.84 291.391 291.1 290.079L299.358 248.426C300.679 241.761 307.122 237.048 314.4 237.421L357.797 239.65L357.687 241.507L314.29 239.278C308.017 238.956 302.464 243.018 301.325 248.763L293.067 290.415C292.843 291.546 292.801 292.702 292.942 293.844L294.201 304.046C294.665 307.808 297.042 311.094 300.703 312.535ZM414.78 312.535C403.263 317.07 382.298 323.003 357.796 323.273L357.82 325.133C382.634 324.859 403.856 318.856 415.56 314.248C419.971 312.511 422.735 308.595 423.27 304.258L424.529 294.056C424.693 292.731 424.643 291.391 424.383 290.079L416.125 248.426C414.804 241.761 408.361 237.048 401.083 237.421L357.686 239.65L357.796 241.507L401.193 239.278C407.466 238.956 413.019 243.018 414.158 248.763L422.416 290.415C422.64 291.546 422.683 292.702 422.542 293.844L421.283 304.046C420.819 307.808 418.441 311.094 414.78 312.535ZM347.771 395.303C351.022 395.877 354.325 396.165 357.634 396.165H362.521V398.025H357.634C354.2 398.025 350.772 397.725 347.398 397.13L341.082 396.016C336.481 395.205 332.01 393.851 327.779 391.984L305.923 382.346C304.441 381.693 303.014 380.935 301.655 380.08C295.872 376.443 291.509 371.164 289.215 365.032L285.156 354.183L282.157 347.21C279.562 341.177 278.228 334.737 278.228 328.239V305.475C278.228 302.664 278.502 299.857 279.045 297.092L279.694 293.789C279.784 293.331 279.829 292.866 279.829 292.401V283.961C279.829 283.059 278.901 282.408 277.968 282.656C277.498 282.78 277.006 282.812 276.523 282.747L273.57 282.35C270.98 282.002 268.466 281.137 266.31 279.697C263.942 278.115 262.06 276.629 259.802 274.244C259.172 273.578 258.844 272.726 258.844 271.859C258.844 269.373 261.44 267.599 263.992 268.344L268.25 269.586C268.819 269.753 269.364 269.983 269.872 270.274L279.262 275.636C279.496 275.77 279.796 275.611 279.792 275.355L277.923 159.85V83.2573L285.004 35.5692C286.005 28.8258 289.199 22.5278 294.158 17.5196C299.276 12.3504 306.016 8.81511 313.42 7.41473L332.979 3.71574L332.98 3.7148L347.003 1.04144C350.634 0.348693 354.331 -6.72461e-06 358.037 -6.72461e-06H362.755V1.85972H358.037C354.466 1.85972 350.904 2.19635 347.405 2.86306L333.38 5.53733H333.379L313.818 9.23635C306.826 10.5586 300.462 13.8987 295.629 18.7796C290.947 23.5088 287.931 29.4562 286.985 35.824L279.923 83.3847V159.843L281.792 275.327C281.82 277.049 279.793 278.123 278.215 277.222L268.825 271.858C268.457 271.648 268.063 271.481 267.651 271.361L263.393 270.118C262.13 269.75 260.844 270.628 260.844 271.859C260.844 272.293 261.009 272.704 261.303 273.015C263.446 275.278 265.211 276.672 267.477 278.186C269.342 279.432 271.545 280.199 273.856 280.51L276.809 280.907C277.013 280.934 277.221 280.921 277.419 280.868C279.629 280.281 281.829 281.823 281.829 283.961V292.401C281.829 292.978 281.773 293.556 281.661 294.124L281.012 297.427C280.49 300.082 280.228 302.776 280.228 305.475V328.239C280.228 334.501 281.513 340.705 284.014 346.519L287.03 353.532L291.104 364.421C293.256 370.175 297.349 375.127 302.775 378.54C304.05 379.341 305.389 380.052 306.78 380.666L328.636 390.303C332.713 392.101 337.021 393.407 341.454 394.189L347.771 395.303ZM362.283 396.181L362.656 398.008L373.952 396.016C378.553 395.205 383.024 393.85 387.255 391.984L409.111 382.346C410.593 381.693 412.02 380.935 413.379 380.08C419.162 376.443 423.525 371.164 425.819 365.032L429.878 354.183L432.877 347.209C435.472 341.176 436.806 334.737 436.806 328.239V305.475C436.806 302.664 436.532 299.857 435.989 297.092L435.34 293.789C435.25 293.33 435.205 292.866 435.205 292.401V283.961C435.205 283.059 436.133 282.408 437.066 282.656C437.536 282.78 438.028 282.812 438.511 282.747L441.464 282.35C444.054 282.002 446.568 281.136 448.724 279.696C451.092 278.114 452.974 276.629 455.232 274.244C455.862 273.578 456.19 272.726 456.19 271.859C456.19 269.373 453.594 267.599 451.042 268.344L446.784 269.586C446.215 269.753 445.67 269.983 445.162 270.274L435.772 275.636C435.538 275.77 435.238 275.611 435.242 275.355L437.111 159.85V83.2573L430.03 35.5692C429.029 28.8258 425.835 22.5278 420.876 17.5196C415.758 12.3504 409.018 8.81511 401.614 7.41473L382.055 3.71574L382.054 3.7148L362.67 0.0195168L362.268 1.84114L381.654 5.53733H381.655L401.216 9.23635C408.208 10.5586 414.572 13.8987 419.405 18.7796C424.087 23.5088 427.103 29.4562 428.049 35.824L435.111 83.3847V159.843L433.242 275.327C433.214 277.049 435.241 278.123 436.819 277.222L446.209 271.858C446.577 271.648 446.971 271.481 447.383 271.361L451.641 270.118C452.904 269.75 454.19 270.628 454.19 271.859C454.19 272.293 454.025 272.704 453.731 273.015C451.588 275.278 449.823 276.672 447.557 278.186C445.692 279.432 443.489 280.199 441.178 280.51L438.225 280.906C438.021 280.933 437.813 280.921 437.615 280.868C435.405 280.281 433.205 281.823 433.205 283.961V292.401C433.205 292.978 433.261 293.556 433.373 294.124L434.022 297.427C434.544 300.082 434.806 302.776 434.806 305.475V328.239C434.806 334.501 433.521 340.705 431.02 346.519L428.004 353.532L423.93 364.421C421.778 370.175 417.685 375.127 412.259 378.54C410.984 379.341 409.645 380.052 408.254 380.665L386.398 390.303C382.321 392.101 378.013 393.407 373.58 394.189L362.283 396.181Z" fill="#FFEA30"/>
<g clip-path="url(#clip1_1_590)">
<path d="M679.649 472.474C686.439 470.843 698.007 468.88 710.577 468.307C723.163 467.733 736.649 468.56 747.333 472.441L748.036 470.616C736.977 466.6 723.174 465.783 710.483 466.361C697.775 466.939 686.077 468.924 679.168 470.583L679.649 472.474ZM781.889 489.083C782.129 490.478 782.164 492.605 781.395 494.404C781.002 495.32 780.385 496.188 779.444 496.801C778.496 497.42 777.3 497.728 775.853 497.654C773.853 497.551 772.126 496.238 770.658 494.659C769.165 493.053 767.754 490.965 766.423 488.966C766.335 488.833 766.247 488.701 766.159 488.569C764.904 486.681 763.722 484.902 762.55 483.558C761.927 482.843 761.34 482.292 760.789 481.924C760.239 481.559 759.776 481.41 759.376 481.41C756.286 481.41 752.953 479.322 750.494 476.447C748.007 473.54 746.218 469.612 746.398 465.595L748.403 465.68C748.249 469.098 749.785 472.568 752.038 475.202C754.317 477.868 757.138 479.462 759.376 479.462C760.307 479.462 761.162 479.81 761.923 480.317C762.682 480.822 763.4 481.517 764.082 482.299C765.342 483.745 766.593 485.628 767.823 487.479C767.918 487.622 768.013 487.766 768.109 487.909C769.454 489.93 770.782 491.884 772.148 493.354C773.54 494.851 774.795 495.649 775.959 495.708C777.043 495.764 777.794 495.532 778.325 495.184C778.865 494.832 779.263 494.308 779.541 493.655C780.114 492.317 780.114 490.597 779.91 489.404L781.889 489.083ZM646.177 489.083C645.937 490.478 645.902 492.605 646.672 494.404C647.064 495.32 647.681 496.188 648.622 496.801C649.57 497.42 650.766 497.728 652.213 497.654C654.213 497.551 655.94 496.238 657.408 494.659C658.901 493.053 660.314 490.965 661.644 488.966C661.732 488.833 661.821 488.701 661.908 488.569C663.163 486.681 664.345 484.902 665.517 483.558C666.14 482.843 666.726 482.292 667.278 481.924C667.827 481.559 668.291 481.41 668.691 481.41C671.782 481.41 675.114 479.322 677.573 476.447C680.059 473.54 681.848 469.612 681.668 465.595L679.664 465.68C679.817 469.098 678.282 472.568 676.03 475.202C673.75 477.868 670.929 479.462 668.691 479.462C667.76 479.462 666.905 479.81 666.144 480.317C665.385 480.822 664.667 481.517 663.985 482.299C662.726 483.745 661.473 485.628 660.243 487.479C660.148 487.622 660.054 487.766 659.958 487.909C658.613 489.93 657.286 491.884 655.919 493.354C654.528 494.851 653.271 495.649 652.108 495.708C651.023 495.764 650.273 495.532 649.742 495.184C649.202 494.832 648.804 494.308 648.525 493.655C647.952 492.317 647.952 490.597 648.156 489.404L646.177 489.083ZM769.605 770.899C769.605 769.833 768.567 769.018 767.46 769.249C755.297 771.789 732.298 775.195 713.375 775.884L713.3 773.937C732.085 773.254 754.965 769.864 767.037 767.344C769.36 766.859 771.611 768.558 771.611 770.899V828.06C771.611 829.66 770.525 831.083 768.914 831.507C757.762 834.443 733.619 839.427 711.924 839.427V837.479C733.37 837.479 757.32 832.541 768.389 829.627C769.104 829.439 769.605 828.801 769.605 828.06V770.899ZM657.835 770.899C657.835 769.833 658.873 769.018 659.981 769.249C672.143 771.789 695.141 775.195 714.064 775.884L714.139 773.937C695.354 773.254 672.474 769.864 660.402 767.344C658.079 766.859 655.829 768.558 655.829 770.899V828.06C655.829 829.66 656.915 831.083 658.526 831.507C669.679 834.443 693.82 839.427 715.515 839.427V837.479C694.069 837.479 670.119 832.541 659.05 829.627C658.335 829.439 657.835 828.801 657.835 828.06V770.899ZM783.986 683.568C785.072 683.223 786.188 684.008 786.188 685.118V774.201C786.188 775.732 784.094 776.513 783.16 775.064C779.311 769.084 773.026 756.463 771.415 742.034L771.409 741.982V688.743C771.409 688.038 771.876 687.412 772.566 687.193L783.986 683.568ZM784.182 772.944V685.556L773.415 688.974V741.876C774.902 755.087 780.422 766.778 784.182 772.944ZM783.543 577.285C783.974 575.38 786.863 575.685 786.863 577.636V669.633C786.863 670.957 786.115 672.174 784.915 672.802L776.378 677.275C773.907 678.569 770.908 676.83 770.908 674.105V633.528C770.908 633.268 770.937 633.009 770.994 632.756L783.543 577.285ZM784.856 669.633V580.56L772.954 633.174C772.928 633.291 772.915 633.41 772.915 633.528V674.105C772.915 675.355 774.291 676.154 775.425 675.56L783.962 671.087C784.513 670.799 784.856 670.241 784.856 669.633ZM784.535 751.349L771.907 742.81L773.055 741.211L785.682 749.751L784.535 751.349ZM643.44 683.566C642.354 683.221 641.239 684.006 641.239 685.116V774.199C641.239 775.73 643.334 776.511 644.267 775.062C648.116 769.082 654.4 756.461 656.011 742.032L656.017 741.98V688.741C656.017 688.036 655.55 687.41 654.86 687.191L643.44 683.566ZM643.245 772.942V685.553L654.011 688.971V741.873C652.524 755.084 647.005 766.776 643.245 772.942ZM643.889 577.283C643.458 575.378 640.569 575.682 640.569 577.633V669.63C640.569 670.954 641.317 672.172 642.517 672.8L651.055 677.272C653.526 678.566 656.524 676.828 656.524 674.103V633.525C656.524 633.265 656.495 633.006 656.438 632.753L643.889 577.283ZM642.576 669.63V580.558L654.478 633.171C654.504 633.288 654.517 633.407 654.517 633.525V674.103C654.517 675.353 653.141 676.151 652.007 675.557L643.47 671.086C642.919 670.797 642.576 670.238 642.576 669.63ZM642.898 751.346L655.525 742.806L654.378 741.207L641.751 749.747L642.898 751.346ZM771.002 545.565C759.447 540.814 738.413 534.598 713.829 534.315L713.852 532.367C738.749 532.654 760.042 538.943 771.785 543.771C776.21 545.591 778.983 549.693 779.519 554.237L780.783 564.926C780.947 566.314 780.898 567.718 780.637 569.092L772.352 612.73C771.026 619.713 764.562 624.652 757.26 624.26L713.719 621.925L713.829 619.979L757.37 622.314C763.664 622.653 769.235 618.396 770.378 612.378L778.664 568.74C778.888 567.555 778.93 566.344 778.789 565.148L777.526 554.459C777.06 550.518 774.675 547.075 771.002 545.565ZM656.547 545.565C668.102 540.814 689.137 534.598 713.72 534.315L713.696 532.367C688.8 532.654 667.507 538.943 655.765 543.771C651.339 545.591 648.566 549.693 648.029 554.237L646.766 564.926C646.601 566.314 646.651 567.718 646.912 569.092L655.198 612.73C656.523 619.713 662.987 624.652 670.29 624.26L713.83 621.925L713.72 619.979L670.179 622.314C663.885 622.653 658.314 618.396 657.171 612.378L648.886 568.74C648.661 567.555 648.618 566.344 648.759 565.148L650.023 554.459C650.488 550.518 652.874 547.075 656.547 545.565ZM723.778 458.851C720.517 458.25 717.203 457.948 713.883 457.948H708.979V456H713.883C717.328 456 720.767 456.314 724.153 456.937L730.489 458.104C735.106 458.955 739.592 460.373 743.837 462.328L765.765 472.426C767.252 473.111 768.684 473.905 770.047 474.8C775.849 478.611 780.227 484.141 782.528 490.565L786.601 501.932L789.61 509.238C792.213 515.558 793.552 522.305 793.552 529.112V552.962C793.552 555.908 793.277 558.848 792.732 561.745L792.081 565.205C791.991 565.685 791.945 566.172 791.945 566.66V575.501C791.945 576.446 792.877 577.128 793.813 576.869C794.284 576.739 794.778 576.706 795.262 576.774L798.225 577.19C800.824 577.554 803.346 578.46 805.509 579.969C807.885 581.626 809.773 583.183 812.039 585.682C812.671 586.379 813 587.273 813 588.181C813 590.786 810.395 592.643 807.835 591.863L803.563 590.562C802.992 590.387 802.445 590.146 801.935 589.842L792.514 584.223C792.28 584.083 791.979 584.25 791.983 584.518L793.858 705.529V785.774L786.753 835.735C785.749 842.8 782.544 849.398 777.569 854.645C772.434 860.061 765.672 863.765 758.243 865.232L738.619 869.107L738.618 869.108L724.549 871.909C720.906 872.635 717.197 873 713.478 873H708.745V871.052H713.478C717.061 871.052 720.635 870.699 724.146 870L738.217 867.199L757.844 863.323C764.859 861.938 771.244 858.439 776.093 853.325C780.791 848.37 783.817 842.139 784.766 835.468L791.851 785.64V705.537L789.976 584.547C789.948 582.743 791.982 581.618 793.565 582.562L802.986 588.182C803.355 588.402 803.75 588.577 804.164 588.703L808.436 590.004C809.703 590.39 810.993 589.47 810.993 588.181C810.993 587.726 810.828 587.295 810.533 586.97C808.383 584.599 806.612 583.138 804.338 581.552C802.467 580.247 800.257 579.443 797.938 579.118L794.975 578.702C794.771 578.673 794.562 578.687 794.363 578.743C792.146 579.357 789.939 577.741 789.939 575.501V566.66C789.939 566.055 789.995 565.45 790.107 564.855L790.759 561.394C791.282 558.612 791.545 555.79 791.545 552.962V529.112C791.545 522.552 790.256 516.052 787.747 509.962L784.721 502.614L780.633 491.205C778.474 485.178 774.367 479.989 768.923 476.414C767.644 475.574 766.301 474.829 764.905 474.186L742.977 464.09C738.886 462.207 734.564 460.838 730.116 460.019L723.778 458.851ZM709.218 457.932L708.844 456.018L697.51 458.104C692.894 458.955 688.408 460.374 684.163 462.329L662.235 472.426C660.748 473.111 659.316 473.905 657.953 474.8C652.151 478.611 647.773 484.141 645.472 490.565L641.399 501.932L638.39 509.239C635.787 515.559 634.448 522.305 634.448 529.112V552.962C634.448 555.908 634.723 558.848 635.268 561.745L635.919 565.205C636.009 565.686 636.054 566.172 636.054 566.66V575.501C636.054 576.446 635.123 577.128 634.187 576.869C633.716 576.739 633.222 576.706 632.738 576.774L629.775 577.19C627.176 577.554 624.654 578.461 622.491 579.97C620.115 581.627 618.227 583.183 615.961 585.682C615.329 586.379 615 587.273 615 588.181C615 590.786 617.605 592.643 620.165 591.863L624.437 590.562C625.008 590.387 625.555 590.146 626.064 589.842L635.486 584.223C635.72 584.083 636.021 584.25 636.017 584.518L634.142 705.529V785.774L641.247 835.735C642.251 842.8 645.456 849.398 650.431 854.645C655.566 860.061 662.328 863.765 669.757 865.232L689.381 869.107L689.382 869.108L708.83 872.98L709.233 871.071L689.783 867.199L670.156 863.323C663.141 861.938 656.756 858.439 651.907 853.325C647.209 848.37 644.183 842.139 643.234 835.468L636.149 785.64V705.537L638.024 584.547C638.052 582.743 636.018 581.618 634.435 582.562L625.014 588.182C624.645 588.402 624.249 588.577 623.836 588.703L619.564 590.004C618.297 590.39 617.007 589.47 617.007 588.181C617.007 587.726 617.172 587.295 617.467 586.97C619.617 584.599 621.388 583.138 623.662 581.552C625.533 580.247 627.743 579.443 630.062 579.118L633.024 578.703C633.229 578.674 633.438 578.687 633.637 578.743C635.854 579.357 638.061 577.741 638.061 575.501V566.66C638.061 566.055 638.005 565.45 637.893 564.855L637.241 561.394C636.718 558.612 636.455 555.79 636.455 552.962V529.112C636.455 522.552 637.744 516.052 640.253 509.962L643.279 502.614L647.367 491.205C649.526 485.178 653.633 479.989 659.077 476.414C660.356 475.574 661.699 474.83 663.095 474.187L685.023 464.09C689.114 462.207 693.436 460.838 697.884 460.019L709.218 457.932Z" fill="#FFEA30"/>
</g>
<g clip-path="url(#clip2_1_590)">
<path d="M1169.33 617.342C1176.1 615.668 1187.63 613.653 1200.15 613.065C1212.7 612.476 1226.14 613.325 1236.79 617.308L1237.49 615.435C1226.47 611.313 1212.71 610.474 1200.06 611.067C1187.39 611.661 1175.73 613.698 1168.85 615.401L1169.33 617.342ZM1271.23 634.391C1271.47 635.823 1271.51 638.007 1270.74 639.853C1270.35 640.793 1269.73 641.684 1268.79 642.314C1267.85 642.949 1266.66 643.265 1265.21 643.189C1263.22 643.084 1261.5 641.736 1260.04 640.115C1258.55 638.466 1257.14 636.323 1255.82 634.271C1255.73 634.135 1255.64 633.999 1255.55 633.864C1254.3 631.926 1253.12 630.1 1251.96 628.72C1251.33 627.986 1250.75 627.42 1250.2 627.043C1249.65 626.668 1249.19 626.515 1248.79 626.515C1245.71 626.515 1242.39 624.372 1239.94 621.421C1237.46 618.437 1235.68 614.405 1235.86 610.281L1237.85 610.368C1237.7 613.877 1239.23 617.439 1241.48 620.143C1243.75 622.879 1246.56 624.515 1248.79 624.515C1249.72 624.515 1250.57 624.873 1251.33 625.393C1252.09 625.911 1252.8 626.625 1253.48 627.428C1254.74 628.912 1255.98 630.845 1257.21 632.745C1257.31 632.892 1257.4 633.039 1257.5 633.186C1258.84 635.261 1260.16 637.266 1261.52 638.775C1262.91 640.312 1264.16 641.131 1265.32 641.192C1266.4 641.249 1267.15 641.011 1267.68 640.654C1268.22 640.293 1268.61 639.755 1268.89 639.085C1269.46 637.711 1269.46 635.945 1269.26 634.721L1271.23 634.391ZM1135.97 634.391C1135.73 635.823 1135.69 638.007 1136.46 639.853C1136.85 640.793 1137.47 641.684 1138.4 642.314C1139.35 642.949 1140.54 643.265 1141.98 643.189C1143.98 643.084 1145.7 641.736 1147.16 640.115C1148.65 638.466 1150.06 636.323 1151.38 634.271C1151.47 634.135 1151.56 633.999 1151.65 633.864C1152.9 631.926 1154.07 630.1 1155.24 628.72C1155.86 627.986 1156.45 627.42 1157 627.043C1157.55 626.668 1158.01 626.515 1158.41 626.515C1161.49 626.515 1164.81 624.372 1167.26 621.421C1169.74 618.437 1171.52 614.405 1171.34 610.281L1169.34 610.368C1169.5 613.877 1167.97 617.439 1165.72 620.143C1163.45 622.879 1160.64 624.515 1158.41 624.515C1157.48 624.515 1156.63 624.873 1155.87 625.393C1155.11 625.911 1154.4 626.625 1153.72 627.428C1152.46 628.912 1151.21 630.845 1149.99 632.745C1149.89 632.892 1149.8 633.039 1149.7 633.186C1148.36 635.261 1147.04 637.266 1145.68 638.775C1144.29 640.312 1143.04 641.131 1141.88 641.192C1140.8 641.249 1140.05 641.011 1139.52 640.654C1138.98 640.293 1138.58 639.755 1138.31 639.085C1137.74 637.711 1137.74 635.945 1137.94 634.721L1135.97 634.391ZM1258.99 923.672C1258.99 922.578 1257.95 921.742 1256.85 921.979C1244.73 924.586 1221.8 928.082 1202.94 928.789L1202.87 926.791C1221.59 926.09 1244.4 922.61 1256.43 920.023C1258.74 919.525 1260.99 921.269 1260.99 923.672V982.348C1260.99 983.99 1259.9 985.451 1258.3 985.886C1247.18 988.9 1223.12 994.016 1201.5 994.016V992.016C1222.87 992.016 1246.74 986.947 1257.77 983.956C1258.49 983.763 1258.99 983.108 1258.99 982.348V923.672ZM1147.59 923.672C1147.59 922.578 1148.62 921.742 1149.72 921.979C1161.85 924.586 1184.77 928.082 1203.63 928.789L1203.7 926.791C1184.98 926.09 1162.18 922.61 1150.14 920.023C1147.83 919.525 1145.59 921.269 1145.59 923.672V982.348C1145.59 983.99 1146.67 985.451 1148.27 985.886C1159.39 988.9 1183.45 994.016 1205.08 994.016V992.016C1183.7 992.016 1159.83 986.947 1148.8 983.956C1148.08 983.763 1147.59 983.108 1147.59 982.348V923.672ZM1273.32 834.028C1274.4 833.674 1275.52 834.48 1275.52 835.619V927.062C1275.52 928.633 1273.43 929.435 1272.5 927.948C1268.66 921.809 1262.4 908.854 1260.79 894.043L1260.79 893.989V839.34C1260.79 838.616 1261.25 837.974 1261.94 837.749L1273.32 834.028ZM1273.52 925.772V836.069L1262.79 839.577V893.881C1264.27 907.442 1269.77 919.442 1273.52 925.772ZM1272.88 724.93C1273.31 722.974 1276.19 723.287 1276.19 725.29V819.724C1276.19 821.083 1275.44 822.332 1274.25 822.977L1265.74 827.568C1263.28 828.897 1260.29 827.112 1260.29 824.314V782.663C1260.29 782.396 1260.31 782.13 1260.37 781.87L1272.88 724.93ZM1274.19 819.724V728.292L1262.32 782.299C1262.3 782.419 1262.29 782.541 1262.29 782.663V824.314C1262.29 825.598 1263.66 826.418 1264.79 825.808L1273.3 821.217C1273.85 820.921 1274.19 820.348 1274.19 819.724ZM1273.87 903.605L1261.28 894.839L1262.43 893.198L1275.01 901.964L1273.87 903.605ZM1133.24 834.026C1132.16 833.672 1131.04 834.478 1131.04 835.617V927.06C1131.04 928.631 1133.13 929.433 1134.06 927.946C1137.9 921.807 1144.16 908.852 1145.77 894.041L1145.77 893.987V839.338C1145.77 838.614 1145.31 837.972 1144.62 837.747L1133.24 834.026ZM1133.04 925.77V836.066L1143.77 839.574V893.878C1142.29 907.439 1136.79 919.44 1133.04 925.77ZM1133.69 724.928C1133.26 722.972 1130.38 723.284 1130.38 725.287V819.721C1130.38 821.08 1131.12 822.33 1132.32 822.975L1140.83 827.565C1143.29 828.894 1146.28 827.11 1146.28 824.312V782.66C1146.28 782.393 1146.25 782.127 1146.19 781.867L1133.69 724.928ZM1132.38 819.721V728.289L1144.24 782.296C1144.27 782.416 1144.28 782.538 1144.28 782.66V824.312C1144.28 825.596 1142.91 826.415 1141.78 825.805L1133.27 821.215C1132.72 820.919 1132.38 820.345 1132.38 819.721ZM1132.7 903.601L1145.28 894.835L1144.14 893.194L1131.56 901.96L1132.7 903.601ZM1260.38 692.37C1248.86 687.493 1227.9 681.112 1203.4 680.822L1203.42 678.822C1228.23 679.116 1249.46 685.572 1261.16 690.528C1265.57 692.396 1268.33 696.607 1268.87 701.271L1270.13 712.243C1270.29 713.668 1270.24 715.109 1269.98 716.52L1261.73 761.314C1260.4 768.482 1253.96 773.551 1246.68 773.149L1203.29 770.752L1203.4 768.755L1246.79 771.152C1253.07 771.499 1258.62 767.13 1259.76 760.952L1268.02 716.158C1268.24 714.942 1268.28 713.699 1268.14 712.471L1266.88 701.499C1266.42 697.454 1264.04 693.92 1260.38 692.37ZM1146.3 692.37C1157.82 687.493 1178.78 681.112 1203.29 680.822L1203.26 678.822C1178.45 679.116 1157.23 685.572 1145.52 690.528C1141.11 692.396 1138.35 696.607 1137.81 701.271L1136.55 712.243C1136.39 713.668 1136.44 715.109 1136.7 716.52L1144.96 761.314C1146.28 768.482 1152.72 773.551 1160 773.149L1203.4 770.752L1203.29 768.755L1159.89 771.152C1153.62 771.499 1148.06 767.13 1146.92 760.952L1138.67 716.158C1138.44 714.942 1138.4 713.699 1138.54 712.471L1139.8 701.499C1140.26 697.454 1142.64 693.92 1146.3 692.37ZM1213.31 603.359C1210.06 602.742 1206.76 602.432 1203.45 602.432H1198.56V600.432H1203.45C1206.88 600.432 1210.31 600.754 1213.68 601.394L1220 602.592C1224.6 603.465 1229.07 604.921 1233.3 606.928L1255.16 617.293C1256.64 617.996 1258.07 618.811 1259.43 619.73C1265.21 623.642 1269.57 629.319 1271.87 635.913L1275.93 647.581L1278.93 655.08C1281.52 661.568 1282.85 668.493 1282.85 675.481V699.962C1282.85 702.986 1282.58 706.004 1282.04 708.978L1281.39 712.53C1281.3 713.022 1281.25 713.522 1281.25 714.023V723.099C1281.25 724.069 1282.18 724.769 1283.12 724.503C1283.59 724.369 1284.08 724.335 1284.56 724.405L1287.51 724.832C1290.1 725.206 1292.62 726.136 1294.77 727.685C1297.14 729.386 1299.02 730.984 1301.28 733.549C1301.91 734.265 1302.24 735.182 1302.24 736.114C1302.24 738.788 1299.64 740.695 1297.09 739.894L1292.83 738.558C1292.26 738.379 1291.72 738.131 1291.21 737.819L1281.82 732.052C1281.59 731.908 1281.29 732.079 1281.29 732.354L1283.16 856.571V938.941L1276.08 990.226C1275.08 997.478 1271.88 1004.25 1266.93 1009.64C1261.81 1015.2 1255.07 1019 1247.66 1020.5L1228.1 1024.48L1228.1 1024.48L1214.08 1027.36C1210.45 1028.1 1206.75 1028.48 1203.05 1028.48H1198.33V1026.48H1203.05C1206.62 1026.48 1210.18 1026.12 1213.68 1025.4L1227.7 1022.52L1247.26 1018.55C1254.26 1017.12 1260.62 1013.53 1265.45 1008.28C1270.14 1003.2 1273.15 996.8 1274.1 989.952L1281.16 938.804V856.579L1279.29 732.384C1279.26 730.532 1281.29 729.378 1282.87 730.347L1292.26 736.115C1292.63 736.341 1293.02 736.521 1293.43 736.65L1297.69 737.986C1298.95 738.382 1300.24 737.438 1300.24 736.114C1300.24 735.647 1300.07 735.205 1299.78 734.871C1297.64 732.437 1295.87 730.938 1293.61 729.31C1291.74 727.97 1289.54 727.145 1287.23 726.811L1284.27 726.384C1284.07 726.355 1283.86 726.369 1283.66 726.426C1281.45 727.057 1279.25 725.398 1279.25 723.099V714.023C1279.25 713.402 1279.31 712.781 1279.42 712.17L1280.07 708.618C1280.59 705.762 1280.85 702.865 1280.85 699.962V675.481C1280.85 668.747 1279.57 662.075 1277.07 655.823L1274.05 648.281L1269.98 636.57C1267.83 630.383 1263.73 625.057 1258.31 621.387C1257.03 620.525 1255.69 619.76 1254.3 619.1L1232.45 608.736C1228.37 606.803 1224.06 605.398 1219.63 604.557L1213.31 603.359ZM1198.8 602.415L1198.43 600.45L1187.13 602.592C1182.53 603.465 1178.06 604.922 1173.83 606.929L1151.97 617.293C1150.49 617.996 1149.06 618.811 1147.7 619.73C1141.92 623.642 1137.56 629.319 1135.26 635.913L1131.2 647.581L1128.21 655.081C1125.61 661.569 1124.28 668.493 1124.28 675.481V699.962C1124.28 702.986 1124.55 706.004 1125.09 708.978L1125.74 712.53C1125.83 713.023 1125.88 713.522 1125.88 714.023V723.099C1125.88 724.069 1124.95 724.769 1124.02 724.503C1123.55 724.369 1123.05 724.335 1122.57 724.405L1119.62 724.832C1117.03 725.206 1114.51 726.137 1112.36 727.686C1109.99 729.387 1108.11 730.984 1105.85 733.549C1105.22 734.265 1104.89 735.182 1104.89 736.114C1104.89 738.788 1107.49 740.695 1110.04 739.894L1114.3 738.558C1114.87 738.379 1115.41 738.131 1115.92 737.819L1125.31 732.052C1125.54 731.908 1125.84 732.079 1125.84 732.354L1123.97 856.571V938.941L1131.05 990.226C1132.05 997.478 1135.25 1004.25 1140.21 1009.64C1145.32 1015.2 1152.06 1019 1159.47 1020.5L1179.03 1024.48L1179.03 1024.48L1198.41 1028.46L1198.81 1026.5L1179.43 1022.52L1159.87 1018.55C1152.87 1017.12 1146.51 1013.53 1141.68 1008.28C1137 1003.2 1133.98 996.8 1133.03 989.952L1125.97 938.804V856.579L1127.84 732.384C1127.87 730.532 1125.84 729.378 1124.26 730.347L1114.87 736.115C1114.51 736.341 1114.11 736.521 1113.7 736.65L1109.44 737.986C1108.18 738.382 1106.89 737.438 1106.89 736.114C1106.89 735.647 1107.06 735.205 1107.35 734.871C1109.49 732.437 1111.26 730.938 1113.53 729.31C1115.39 727.97 1117.59 727.145 1119.9 726.811L1122.86 726.385C1123.06 726.356 1123.27 726.369 1123.47 726.426C1125.68 727.057 1127.88 725.398 1127.88 723.099V714.023C1127.88 713.402 1127.82 712.781 1127.71 712.17L1127.06 708.618C1126.54 705.762 1126.28 702.865 1126.28 699.962V675.481C1126.28 668.747 1127.56 662.075 1130.06 655.823L1133.08 648.281L1137.15 636.57C1139.3 630.383 1143.4 625.057 1148.82 621.387C1150.1 620.525 1151.44 619.761 1152.83 619.101L1174.68 608.736C1178.76 606.803 1183.07 605.398 1187.5 604.557L1198.8 602.415Z" fill="#FFEA30"/>
</g>
</g>
<defs>
<clipPath id="clip0_1_590">
<rect width="1440" height="750" fill="white"/>
</clipPath>
<clipPath id="clip1_1_590">
<rect width="198" height="295" fill="white" transform="translate(615 456)"/>
</clipPath>
<clipPath id="clip2_1_590">
<rect width="199" height="150" fill="white" transform="translate(1104 600)"/>
</clipPath>
</defs>
</svg>
