<svg width="320" height="40" viewBox="0 0 320 40" fill="none" xmlns="http://www.w3.org/2000/svg">
<path d="M31.4065 12.1699L27.1284 24.6315L22.8725 12.1699H20.2125L25.5324 27.4736H28.7244L34.0665 12.1699H31.4065Z" fill="#393737"/>
<path d="M54.6219 27.4736H57.2819L51.2748 12.1699H48.0829L42.0758 27.4736H44.7358L46.3096 23.3635H53.0482L54.6219 27.4736ZM47.2184 21.0243L49.6789 14.6185L52.1393 21.0243H47.2184Z" fill="#393737"/>
<path d="M71.8641 12.1699H66.4333V27.4736H71.8641C76.3639 27.4736 79.7997 24.238 79.7997 19.8218C79.7997 15.3837 76.386 12.1699 71.8641 12.1699ZM71.8862 25.1125H68.9381V14.5311H71.8862C75.0116 14.5311 77.2948 16.7173 77.2948 19.8218C77.2948 22.9481 75.0116 25.1125 71.8862 25.1125Z" fill="#393737"/>
<path d="M99.5523 14.5311V12.1699H89.4222V27.4736H99.5523V25.1125H91.927V20.8494H98.9981V18.4882H91.927V14.5311H99.5523Z" fill="#393737"/>
<path d="M291 16H269V18H291V16Z" fill="#393737"/>
<path d="M291 23H269V25H291V23Z" fill="#393737"/>
</svg>
