<svg width="32" height="32" viewBox="0 0 32 32" fill="none" xmlns="http://www.w3.org/2000/svg">
<g clip-path="url(#clip0_1_895)">
<path d="M16 0.691284C7.43254 0.691284 0.484863 7.63897 0.484863 16.2064C0.484863 24.7739 7.43254 31.7216 16 31.7216C24.5675 31.7216 31.5152 24.7739 31.5152 16.2064C31.5152 7.63897 24.5675 0.691284 16 0.691284ZM23.084 12.7884C23.0909 12.9411 23.0942 13.0945 23.0942 13.2486C23.0942 17.9543 19.5124 23.3807 12.9619 23.3809H12.9621H12.9619C10.9508 23.3809 9.07933 22.7915 7.50333 21.7812C7.78198 21.8141 8.0656 21.8305 8.35276 21.8305C10.0213 21.8305 11.5569 21.2614 12.7758 20.3061C11.2169 20.2772 9.90247 19.2476 9.44888 17.8326C9.66597 17.8743 9.88922 17.897 10.1182 17.897C10.4432 17.897 10.758 17.8532 11.0573 17.7715C9.42781 17.4453 8.2003 16.0052 8.2003 14.2808C8.2003 14.2646 8.2003 14.2503 8.20077 14.2353C8.68065 14.5021 9.22942 14.6626 9.8137 14.6806C8.8575 14.0426 8.22894 12.9519 8.22894 11.7164C8.22894 11.0639 8.40532 10.4527 8.71119 9.9264C10.4673 12.0812 13.0919 13.4984 16.0516 13.6472C15.9905 13.3864 15.9591 13.1146 15.9591 12.8352C15.9591 10.8693 17.554 9.27438 19.5206 9.27438C20.545 9.27438 21.4702 9.70734 22.1201 10.3996C22.9313 10.2396 23.6932 9.94317 24.3814 9.53527C24.1151 10.3664 23.5507 11.0639 22.8153 11.505C23.5357 11.4188 24.2223 11.2277 24.8603 10.9441C24.3838 11.6584 23.7794 12.2858 23.084 12.7884Z" fill="black"/>
</g>
<defs>
<clipPath id="clip0_1_895">
<rect width="32" height="32" fill="white"/>
</clipPath>
</defs>
</svg>
