<svg width="559" height="562" viewBox="0 0 559 562" fill="none" xmlns="http://www.w3.org/2000/svg">
<g clip-path="url(#clip0_1_857)">
<path d="M48.0775 5.85315L13.8478 5.86888C9.16021 5.87104 5.36133 9.67168 5.36133 14.3593L5.36132 70.5751" stroke="white" stroke-width="10"/>
</g>
<g clip-path="url(#clip1_1_857)">
<path d="M48.0775 556.146L13.8479 556.131C9.16026 556.128 5.36133 552.328 5.36133 547.64V492.862" stroke="white" stroke-width="10"/>
</g>
<g clip-path="url(#clip2_1_857)">
<path d="M510.29 5.85315L544.519 5.86889C549.207 5.87105 553.006 9.67168 553.006 14.3593V70.5751" stroke="white" stroke-width="10"/>
</g>
<g clip-path="url(#clip3_1_857)">
<path d="M510.29 556.146L544.519 556.131C549.207 556.128 553.006 552.328 553.006 547.64V492.862" stroke="white" stroke-width="10"/>
</g>
<defs>
<clipPath id="clip0_1_857">
<rect width="49" height="71" fill="white"/>
</clipPath>
<clipPath id="clip1_1_857">
<rect width="49" height="70" fill="white" transform="translate(0 492)"/>
</clipPath>
<clipPath id="clip2_1_857">
<rect width="49" height="71" fill="white" transform="translate(510)"/>
</clipPath>
<clipPath id="clip3_1_857">
<rect width="49" height="70" fill="white" transform="translate(510 492)"/>
</clipPath>
</defs>
</svg>
