<svg width="32" height="32" viewBox="0 0 32 32" fill="none" xmlns="http://www.w3.org/2000/svg">
<g clip-path="url(#clip0_1_897)">
<path d="M16 0.691284C7.43254 0.691284 0.484863 7.63897 0.484863 16.2064C0.484863 24.7739 7.43254 31.7216 16 31.7216C24.5675 31.7216 31.5152 24.7739 31.5152 16.2064C31.5152 7.63897 24.5675 0.691284 16 0.691284ZM11.4915 24.1458H7.71285V12.7777H11.4915V24.1458ZM9.60228 11.2254H9.57766C8.30968 11.2254 7.4896 10.3525 7.4896 9.2616C7.4896 8.14606 8.33476 7.29734 9.62738 7.29734C10.92 7.29734 11.7154 8.14606 11.74 9.2616C11.74 10.3525 10.92 11.2254 9.60228 11.2254ZM25.1165 24.1458H21.3383V18.0642C21.3383 16.5358 20.7912 15.4933 19.424 15.4933C18.3802 15.4933 17.7586 16.1965 17.4853 16.8752C17.3854 17.1182 17.3611 17.4576 17.3611 17.7973V24.1458H13.5827C13.5827 24.1458 13.6321 13.8443 13.5827 12.7777H17.3611V14.3873C17.8632 13.6127 18.7616 12.5109 20.7664 12.5109C23.2524 12.5109 25.1165 14.1357 25.1165 17.6273V24.1458Z" fill="black"/>
</g>
<defs>
<clipPath id="clip0_1_897">
<rect width="32" height="32" fill="white"/>
</clipPath>
</defs>
</svg>
