<svg width="32" height="32" viewBox="0 0 32 32" fill="none" xmlns="http://www.w3.org/2000/svg">
<g clip-path="url(#clip0_1_890)">
<path d="M16 0.691284C7.43254 0.691284 0.484863 7.63897 0.484863 16.2064C0.484863 24.7739 7.43254 31.7216 16 31.7216C24.5675 31.7216 31.5152 24.7739 31.5152 16.2064C31.5152 7.63897 24.5675 0.691284 16 0.691284ZM24.8554 19.8795C24.8122 20.8279 24.6614 21.4754 24.4413 22.0422C23.9785 23.2389 23.0325 24.1849 21.8357 24.6478C21.2692 24.8679 20.6215 25.0185 19.6733 25.0618C18.7232 25.1051 18.4198 25.1155 16.0002 25.1155C13.5805 25.1155 13.2772 25.1051 12.327 25.0618C11.3788 25.0185 10.7311 24.8679 10.1646 24.6478C9.56986 24.424 9.0315 24.0734 8.58643 23.6201C8.1333 23.1752 7.78269 22.6366 7.55897 22.0422C7.3388 21.4756 7.18799 20.8279 7.1449 19.8798C7.10111 18.9295 7.09092 18.6259 7.09092 16.2064C7.09092 13.787 7.10111 13.4834 7.14466 12.5333C7.18775 11.585 7.33832 10.9375 7.55849 10.3707C7.78221 9.77629 8.13307 9.23769 8.58643 8.79285C9.03127 8.33949 9.56986 7.98887 10.1643 7.76514C10.7311 7.54498 11.3785 7.39441 12.327 7.35108C13.277 7.30776 13.5805 7.29734 16 7.29734C18.4195 7.29734 18.723 7.30776 19.673 7.35132C20.6215 7.39441 21.269 7.54498 21.8357 7.76491C22.4302 7.98863 22.9687 8.33949 23.4138 8.79285C23.867 9.23792 24.2178 9.77629 24.4413 10.3707C24.6617 10.9375 24.8122 11.585 24.8556 12.5333C24.8989 13.4834 24.9091 13.787 24.9091 16.2064C24.9091 18.6259 24.8989 18.9295 24.8554 19.8795Z" fill="black"/>
<path d="M16 21.0549C18.1422 21.0549 19.8788 19.3183 19.8788 17.1762C19.8788 15.034 18.1422 13.2974 16 13.2974C13.8578 13.2974 12.1212 15.034 12.1212 17.1762C12.1212 19.3183 13.8578 21.0549 16 21.0549Z" fill="black"/>
<path d="M20.3636 12.3277C21.1669 12.3277 21.8181 11.6764 21.8181 10.8731C21.8181 10.0698 21.1669 9.41858 20.3636 9.41858C19.5603 9.41858 18.9091 10.0698 18.9091 10.8731C18.9091 11.6764 19.5603 12.3277 20.3636 12.3277Z" fill="black"/>
</g>
<defs>
<clipPath id="clip0_1_890">
<rect width="32" height="32" fill="white"/>
</clipPath>
</defs>
</svg>
