<svg width="44" height="42" viewBox="0 0 44 42" fill="none" xmlns="http://www.w3.org/2000/svg">
<path fill-rule="evenodd" clip-rule="evenodd" d="M29.2103 8.211C29.2103 5.2563 31.7807 2.86104 34.9517 2.86104C38.1226 2.86104 40.6932 5.2563 40.6932 8.211C40.6932 11.1658 38.1226 13.561 34.9517 13.561C31.7807 13.561 29.2103 11.1658 29.2103 8.211ZM34.9517 0.561035C30.4176 0.561035 26.742 3.98606 26.742 8.211C26.742 12.436 30.4176 15.861 34.9517 15.861C39.4858 15.861 43.1615 12.436 43.1615 8.211C43.1615 3.98606 39.4858 0.561035 34.9517 0.561035ZM24.7566 20.061H25.5463L25.8771 20.7291L35.5357 40.2291L36.344 41.861H34.4152H11.8786H11.0889L10.758 41.193L1.09945 21.693L0.291138 20.061H2.22H24.7566ZM29.5144 33.561L27.1865 28.861H22.6404L24.9684 33.561H29.5144ZM30.6536 35.861H26.1076L27.9402 39.561H32.4862L30.6536 35.861ZM22.2499 33.561L19.9219 28.861H15.1282L17.4562 33.561H22.2499ZM18.5954 35.861H23.3891L25.2217 39.561H20.428L18.5954 35.861ZM14.7377 33.561L12.4097 28.861H7.36838L9.69633 33.561H14.7377ZM10.8356 35.861H15.8769L17.7095 39.561H12.6682L10.8356 35.861ZM23.967 22.361L26.0472 26.561H21.5012L19.4209 22.361H23.967ZM16.7024 22.361L18.7827 26.561H13.989L11.9087 22.361H16.7024ZM9.1902 22.361L11.2705 26.561H6.22916L4.14886 22.361H9.1902ZM21.9932 8.561C22.8378 8.561 23.5225 7.923 23.5225 7.13599C23.5225 6.34899 22.8378 5.711 21.9932 5.711C21.1486 5.711 20.4639 6.34899 20.4639 7.13599C20.4639 7.923 21.1486 8.561 21.9932 8.561ZM42.1809 17.5917C42.8452 18.0777 42.9609 18.9735 42.4394 19.5925C41.9177 20.2115 40.9563 20.3193 40.292 19.8333C39.6278 19.3472 39.5121 18.4514 40.0337 17.8324C40.5553 17.2134 41.5166 17.1056 42.1809 17.5917ZM14.481 12.561C15.3256 12.561 16.0103 11.923 16.0103 11.136C16.0103 10.349 15.3256 9.711 14.481 9.711C13.6364 9.711 12.9517 10.349 12.9517 11.136C12.9517 11.923 13.6364 12.561 14.481 12.561ZM40.9191 25.5682C41.5834 26.0543 41.6991 26.9501 41.1775 27.569C40.6559 28.188 39.6945 28.2958 39.0303 27.8098C38.366 27.3238 38.2503 26.428 38.7719 25.809C39.2935 25.19 40.2548 25.0822 40.9191 25.5682ZM6.96878 16.561C7.81338 16.561 8.49805 15.923 8.49805 15.136C8.49805 14.349 7.81338 13.711 6.96878 13.711C6.1242 13.711 5.43951 14.349 5.43951 15.136C5.43951 15.923 6.1242 16.561 6.96878 16.561ZM39.6531 33.5448C40.3174 34.0308 40.4331 34.9266 39.9115 35.5456C39.3899 36.1646 38.4286 36.2724 37.7643 35.7864C37.1 35.3004 36.9843 34.4046 37.5059 33.7856C38.0274 33.1666 38.9888 33.0588 39.6531 33.5448Z" fill="#4E66FF"/>
</svg>
