<svg width="320" height="411" viewBox="0 0 320 411" fill="none" xmlns="http://www.w3.org/2000/svg">
<g opacity="0.2">
<path d="M180.954 0.014679H315.079C315.977 0.014679 316.706 0.742981 316.706 1.64001V295.686C316.706 296.583 315.977 297.312 315.079 297.312H180.954C180.057 297.312 179.328 296.583 179.328 295.686V1.64001C179.328 0.742981 180.057 0.014679 180.954 0.014679Z" fill="#FFEA30"/>
</g>
<path d="M314.007 299.997C317.002 299.997 319.429 297.571 319.429 294.579V257.882H314.007V294.579H274.222V299.997H314.007ZM176.286 294.58C176.286 297.572 178.714 299.997 181.708 299.997H218.433V294.58H181.708V245.65H176.286V294.58Z" fill="#FFEA30"/>
<g opacity="0.2">
<path d="M315.378 411H181.622C180.727 411 180 410.76 180 410.464V313.536C180 313.24 180.727 313 181.622 313H315.378C316.273 313 317 313.24 317 313.536V410.464C317 410.76 316.273 411 315.378 411Z" fill="#FFEA30"/>
</g>
<path d="M182.279 310.384C179.284 310.384 176.857 312.809 176.857 315.802V352.499H182.279V315.802H222.064V310.384H182.279ZM320 315.801C320 312.809 317.573 310.383 314.578 310.383H277.853V315.801H314.578V364.731H320V315.801Z" fill="#FFEA30"/>
<g opacity="0.999991">
<path d="M281.065 311.721H315.541V353.745H314.456V312.805H281.065V311.721ZM179.188 353.385V312.443H214.747V313.526H180.272V353.385H179.188Z" fill="#FFEA30"/>
</g>
<path d="M72.0627 253.073C68.3937 253.98 62.1422 255.072 55.3496 255.391C48.5478 255.71 41.2602 255.25 35.4865 253.092L35.1064 254.107C41.0829 256.34 48.5419 256.794 55.4001 256.473C62.2674 256.151 68.5894 255.048 72.3229 254.125L72.0627 253.073ZM16.8123 243.837C16.6827 243.061 16.6637 241.878 17.0796 240.878C17.2916 240.368 17.625 239.886 18.1336 239.544C18.646 239.2 19.2923 239.029 20.0741 239.07C21.1552 239.127 22.0884 239.857 22.8816 240.736C23.6884 241.629 24.4512 242.79 25.1702 243.902C25.2179 243.975 25.2656 244.049 25.3128 244.122C25.991 245.172 26.6298 246.161 27.263 246.909C27.5997 247.307 27.9169 247.613 28.2151 247.818C28.5122 248.021 28.7622 248.104 28.9785 248.104C30.6485 248.104 32.4496 249.265 33.7785 250.864C35.1221 252.48 36.0888 254.665 35.9918 256.899L34.9085 256.852C34.9914 254.951 34.1613 253.021 32.9441 251.556C31.7123 250.074 30.1876 249.187 28.9785 249.187C28.4754 249.187 28.0134 248.993 27.6019 248.712C27.192 248.431 26.8038 248.044 26.4351 247.609C25.7547 246.805 25.0785 245.758 24.4138 244.728C24.3623 244.649 24.3108 244.569 24.2593 244.49C23.5322 243.365 22.8149 242.279 22.0764 241.462C21.3244 240.629 20.6461 240.185 20.0172 240.152C19.4311 240.121 19.0255 240.25 18.7382 240.444C18.4465 240.639 18.2318 240.931 18.081 241.294C17.7714 242.038 17.7714 242.995 17.882 243.658L16.8123 243.837ZM90.1513 243.837C90.2809 243.061 90.2998 241.878 89.884 240.878C89.672 240.368 89.3385 239.886 88.83 239.544C88.3176 239.2 87.6713 239.029 86.8895 239.07C85.8083 239.127 84.8752 239.857 84.082 240.736C83.2752 241.629 82.5118 242.79 81.7928 243.902C81.7451 243.975 81.6974 244.049 81.6503 244.122C80.972 245.172 80.3333 246.161 79.7 246.909C79.3633 247.307 79.0466 247.613 78.7484 247.818C78.4513 248.021 78.2008 248.104 77.9845 248.104C76.3145 248.104 74.5139 249.265 73.185 250.864C71.8415 252.48 70.8747 254.665 70.9718 256.899L72.0551 256.852C71.9721 254.951 72.8017 253.021 74.0189 251.556C75.2508 250.074 76.7754 249.187 77.9845 249.187C78.4877 249.187 78.9496 248.993 79.3611 248.712C79.771 248.431 80.1592 248.044 80.5279 247.609C81.2084 246.805 81.885 245.758 82.5497 244.728C82.6013 244.649 82.6522 244.569 82.7037 244.49C83.4308 243.365 84.1481 242.279 84.8866 241.462C85.6386 240.629 86.3174 240.185 86.9464 240.152C87.5325 240.121 87.9375 240.25 88.2249 240.444C88.5166 240.639 88.7318 240.931 88.8825 241.294C89.1921 242.038 89.1921 242.995 89.0815 243.658L90.1513 243.837ZM23.4509 87.1113C23.4509 87.704 24.0115 88.1569 24.6101 88.0285C31.1825 86.6161 43.6112 84.722 53.8375 84.339L53.8781 85.4215C43.7267 85.8012 31.362 87.6866 24.8383 89.0882C23.5832 89.358 22.3665 88.4132 22.3665 87.1113V55.322C22.3665 54.4324 22.9537 53.6409 23.8239 53.4052C29.8509 51.7723 42.8977 49.0006 54.6215 49.0006V50.0842C43.0321 50.0842 30.0895 52.8304 24.108 54.4509C23.7214 54.5554 23.4509 54.9103 23.4509 55.322V87.1113ZM83.851 87.1113C83.851 87.704 83.2904 88.1569 82.6918 88.0285C76.1194 86.6161 63.6912 84.722 53.465 84.339L53.4243 85.4215C63.5758 85.8012 75.9404 87.6866 82.4641 89.0882C83.7193 89.358 84.9354 88.4132 84.9354 87.1113V55.322C84.9354 54.4324 84.3482 53.6409 83.478 53.4052C77.451 51.7723 64.4048 49.0006 52.681 49.0006V50.0842C64.2703 50.0842 77.213 52.8304 83.1944 54.4509C83.581 54.5554 83.851 54.9103 83.851 55.322V87.1113ZM15.6791 135.678C15.0925 135.87 14.489 135.433 14.489 134.816V85.2746C14.489 84.4235 15.6211 83.989 16.1253 84.7946C18.2057 88.1206 21.602 95.1393 22.4728 103.164L22.476 103.193V132.8C22.476 133.193 22.2234 133.54 21.8503 133.662L15.6791 135.678ZM15.5734 85.9735V134.572L21.3916 132.672V103.251C20.5881 95.9043 17.605 89.403 15.5734 85.9735ZM15.9188 194.785C15.6856 195.845 14.1246 195.675 14.1246 194.59V143.428C14.1246 142.692 14.5286 142.015 15.177 141.665L19.7905 139.178C21.126 138.458 22.7466 139.425 22.7466 140.941V163.507C22.7466 163.651 22.7309 163.795 22.6999 163.936L15.9188 194.785ZM15.209 143.428V192.963L21.6411 163.704C21.6551 163.639 21.6622 163.573 21.6622 163.507V140.941C21.6622 140.245 20.9183 139.801 20.3056 140.132L15.6921 142.619C15.3945 142.779 15.209 143.09 15.209 143.428ZM15.3825 97.9831L22.2066 102.732L21.5863 103.621L14.7628 98.8721L15.3825 97.9831ZM91.6304 135.679C92.217 135.871 92.8199 135.434 92.8199 134.817V85.2757C92.8199 84.4246 91.6878 83.9901 91.1836 84.7957C89.1032 88.1217 85.7075 95.1404 84.8367 103.165L84.8335 103.194V132.801C84.8335 133.194 85.0861 133.541 85.4591 133.663L91.6304 135.679ZM91.7356 85.9746V134.574L85.9178 132.674V103.253C86.7214 95.9059 89.704 89.4041 91.7356 85.9746ZM91.3875 194.786C91.6206 195.846 93.1816 195.677 93.1816 194.591V143.429C93.1816 142.693 92.7776 142.016 92.1292 141.666L87.5151 139.18C86.1797 138.46 84.5597 139.426 84.5597 140.942V163.508C84.5597 163.653 84.5754 163.797 84.6063 163.938L91.3875 194.786ZM92.0972 143.429V192.965L85.6652 163.705C85.6511 163.64 85.644 163.574 85.644 163.508V140.942C85.644 140.246 86.3879 139.803 87.0006 140.133L91.6141 142.62C91.9118 142.78 92.0972 143.091 92.0972 143.429ZM91.9232 97.9852L85.0997 102.734L85.7194 103.624L92.5429 98.8743L91.9232 97.9852ZM22.6956 212.425C28.94 215.067 40.3071 218.524 53.5918 218.682L53.5794 219.765C40.1254 219.606 28.6185 216.108 22.2727 213.423C19.8811 212.411 18.383 210.13 18.0929 207.603L17.4103 201.658C17.3214 200.886 17.348 200.106 17.4889 199.341L21.9664 175.073C22.6826 171.189 26.1759 168.443 30.122 168.661L53.6515 169.96L53.5918 171.042L30.0624 169.743C26.6612 169.555 23.6504 171.922 23.0329 175.269L18.5554 199.537C18.434 200.196 18.4112 200.87 18.4877 201.535L19.1703 207.479C19.4219 209.671 20.7106 211.585 22.6956 212.425ZM84.5472 212.425C78.3028 215.067 66.9357 218.524 53.6509 218.682L53.664 219.765C67.1179 219.606 78.6243 216.108 84.9701 213.423C87.3617 212.411 88.8603 210.13 89.1504 207.603L89.833 201.658C89.9219 200.886 89.8948 200.106 89.7538 199.341L85.2764 175.073C84.5602 171.189 81.0669 168.443 77.1208 168.661L53.5913 169.96L53.6509 171.042L77.1804 169.743C80.5816 169.555 83.5924 171.922 84.2099 175.269L88.6874 199.537C88.8088 200.196 88.8321 200.87 88.7557 201.535L88.0731 207.479C87.8215 209.671 86.5321 211.585 84.5472 212.425ZM48.2155 260.649C49.9781 260.983 51.769 261.151 53.5631 261.151H56.2128V262.235H53.5631C51.7012 262.235 49.8426 262.06 48.0132 261.714L44.5888 261.065C42.0941 260.592 39.67 259.803 37.376 258.715L25.5258 253.1C24.7223 252.719 23.9486 252.278 23.2118 251.78C20.0763 249.66 17.7107 246.585 16.4669 243.012L14.2662 236.691L12.6401 232.628C11.2331 229.113 10.5098 225.361 10.5098 221.575V208.312C10.5098 206.674 10.6584 205.039 10.9528 203.427L11.3047 201.503C11.3535 201.236 11.3779 200.965 11.3779 200.694V195.777C11.3779 195.251 10.8748 194.872 10.3689 195.016C10.1141 195.089 9.84731 195.107 9.58542 195.069L7.98433 194.838C6.58006 194.635 5.21698 194.131 4.04801 193.292C2.76411 192.371 1.7437 191.505 0.519432 190.115C0.177849 189.727 2.28882e-05 189.231 2.28882e-05 188.726C2.28882e-05 187.277 1.40755 186.244 2.79122 186.678L5.09987 187.402C5.40837 187.499 5.70387 187.633 5.97931 187.802L11.0705 190.926C11.1973 191.004 11.36 190.912 11.3578 190.763L10.3445 123.465V78.8389L14.1837 51.0539C14.7265 47.125 16.4582 43.4555 19.147 40.5375C21.9219 37.5258 25.5763 35.466 29.5907 34.65L40.1954 32.4949L40.1959 32.4943L47.7991 30.9367C49.7678 30.5331 51.7723 30.3299 53.7816 30.3299H56.3397V31.4135H53.7816C51.8454 31.4135 49.9142 31.6096 48.017 31.998L40.4128 33.5562H40.4123L29.8064 35.7114C26.0154 36.4818 22.5649 38.4278 19.9445 41.2716C17.406 44.0271 15.7707 47.4923 15.2578 51.2024L11.4289 78.9131V123.461L12.4422 190.746C12.4574 191.75 11.3584 192.375 10.5028 191.85L5.41164 188.725C5.21211 188.603 4.99847 188.505 4.77509 188.435L2.46645 187.711C1.78165 187.497 1.0844 188.008 1.0844 188.726C1.0844 188.979 1.17386 189.218 1.33327 189.399C2.49519 190.718 3.45215 191.53 4.68076 192.412C5.69194 193.138 6.88639 193.585 8.1394 193.766L9.74049 193.997C9.8511 194.013 9.96387 194.005 10.0712 193.974C11.2695 193.633 12.4623 194.531 12.4623 195.777V200.694C12.4623 201.03 12.4319 201.367 12.3712 201.698L12.0193 203.622C11.7363 205.17 11.5942 206.739 11.5942 208.312V221.575C11.5942 225.223 12.291 228.838 13.647 232.225L15.2822 236.311L17.4911 242.656C18.6579 246.008 20.8771 248.894 23.819 250.882C24.5103 251.349 25.2363 251.763 25.9905 252.121L37.8406 257.736C40.0512 258.783 42.3869 259.544 44.7905 260L48.2155 260.649ZM56.0838 261.161L56.286 262.225L62.4106 261.065C64.9052 260.592 67.3293 259.802 69.6234 258.715L81.4735 253.1C82.277 252.719 83.0507 252.278 83.7876 251.78C86.9231 249.66 89.2886 246.585 90.5324 243.012L92.7332 236.691L94.3592 232.627C95.7662 229.112 96.4895 225.361 96.4895 221.575V208.312C96.4895 206.674 96.3409 205.039 96.0465 203.427L95.6946 201.503C95.6458 201.236 95.6214 200.965 95.6214 200.694V195.777C95.6214 195.251 96.1246 194.872 96.6305 195.016C96.8853 195.089 97.1521 195.107 97.4139 195.069L99.015 194.838C100.419 194.635 101.782 194.131 102.951 193.292C104.235 192.37 105.256 191.505 106.48 190.115C106.821 189.727 106.999 189.231 106.999 188.726C106.999 187.277 105.592 186.244 104.208 186.678L101.899 187.402C101.591 187.499 101.295 187.633 101.02 187.802L95.9289 190.926C95.802 191.004 95.6393 190.912 95.6415 190.763L96.6549 123.465V78.8389L92.8156 51.0539C92.2729 47.125 90.5411 43.4555 87.8524 40.5375C85.0774 37.5258 81.4231 35.466 77.4087 34.65L66.804 32.4949L66.8034 32.4943L56.2936 30.3413L56.0756 31.4026L66.5865 33.5562H66.5871L77.1929 35.7114C80.9839 36.4818 84.4344 38.4278 87.0548 41.2716C89.5934 44.0271 91.2286 47.4923 91.7415 51.2024L95.5705 78.9131V123.461L94.5571 190.746C94.5419 191.75 95.641 192.375 96.4965 191.85L101.588 188.725C101.787 188.603 102.001 188.505 102.224 188.435L104.533 187.711C105.218 187.497 105.915 188.008 105.915 188.726C105.915 188.979 105.825 189.218 105.666 189.399C104.504 190.718 103.547 191.53 102.319 192.412C101.307 193.138 100.113 193.585 98.86 193.766L97.2589 193.997C97.1483 194.012 97.0355 194.005 96.9281 193.974C95.7299 193.633 94.5371 194.531 94.5371 195.777V200.694C94.5371 201.03 94.5674 201.367 94.6281 201.698L94.98 203.622C95.2631 205.17 95.4051 206.739 95.4051 208.312V221.575C95.4051 225.223 94.7084 228.838 93.3524 232.225L91.7171 236.311L89.5082 242.656C88.3414 246.008 86.1222 248.894 83.1803 250.882C82.489 251.349 81.763 251.763 81.0088 252.12L69.1587 257.736C66.9482 258.783 64.6124 259.544 62.2089 260L56.0838 261.161Z" fill="#FFEA30"/>
<g clip-path="url(#clip0_1_334)">
<path d="M230.61 364.791C234.279 363.884 240.53 362.792 247.323 362.474C254.124 362.155 261.412 362.615 267.186 364.772L267.566 363.758C261.589 361.524 254.13 361.07 247.272 361.391C240.405 361.713 234.083 362.817 230.349 363.739L230.61 364.791ZM285.86 374.028C285.99 374.803 286.009 375.987 285.593 376.987C285.381 377.496 285.047 377.979 284.539 378.32C284.026 378.664 283.38 378.835 282.598 378.794C281.517 378.737 280.584 378.007 279.791 377.129C278.984 376.235 278.221 375.074 277.502 373.963C277.454 373.889 277.407 373.815 277.36 373.742C276.681 372.692 276.043 371.703 275.409 370.955C275.073 370.557 274.755 370.251 274.457 370.047C274.16 369.843 273.91 369.761 273.694 369.761C272.024 369.761 270.223 368.6 268.894 367.001C267.55 365.384 266.583 363.2 266.681 360.965L267.764 361.012C267.681 362.914 268.511 364.843 269.728 366.308C270.96 367.791 272.485 368.677 273.694 368.677C274.197 368.677 274.659 368.871 275.07 369.153C275.48 369.433 275.869 369.82 276.237 370.255C276.918 371.059 277.594 372.106 278.258 373.136C278.31 373.215 278.362 373.295 278.413 373.375C279.14 374.499 279.857 375.585 280.596 376.403C281.348 377.235 282.026 377.679 282.655 377.712C283.241 377.743 283.647 377.614 283.934 377.421C284.226 377.225 284.441 376.934 284.591 376.571C284.901 375.826 284.901 374.869 284.79 374.206L285.86 374.028ZM212.521 374.028C212.391 374.803 212.372 375.987 212.788 376.987C213 377.496 213.334 377.979 213.842 378.32C214.355 378.664 215.001 378.835 215.783 378.794C216.864 378.737 217.797 378.007 218.59 377.129C219.397 376.235 220.161 375.074 220.879 373.963C220.927 373.889 220.975 373.815 221.022 373.742C221.7 372.692 222.339 371.703 222.972 370.955C223.309 370.557 223.626 370.251 223.924 370.047C224.221 369.843 224.471 369.761 224.688 369.761C226.358 369.761 228.158 368.6 229.487 367.001C230.831 365.384 231.798 363.2 231.701 360.965L230.617 361.012C230.7 362.914 229.871 364.843 228.653 366.308C227.422 367.791 225.897 368.677 224.688 368.677C224.185 368.677 223.723 368.871 223.311 369.153C222.901 369.433 222.513 369.82 222.144 370.255C221.464 371.059 220.787 372.106 220.123 373.136C220.071 373.215 220.02 373.295 219.969 373.375C219.241 374.499 218.524 375.585 217.786 376.403C217.034 377.235 216.355 377.679 215.726 377.712C215.14 377.743 214.735 377.614 214.447 377.421C214.156 377.225 213.94 376.934 213.79 376.571C213.48 375.826 213.48 374.869 213.591 374.206L212.521 374.028ZM279.221 530.753C279.221 530.16 278.661 529.707 278.062 529.836C271.49 531.248 259.061 533.142 248.835 533.525L248.794 532.443C258.946 532.063 271.31 530.178 277.834 528.776C279.089 528.506 280.306 529.451 280.306 530.753V562.542C280.306 563.432 279.719 564.223 278.848 564.459C272.821 566.092 259.775 568.864 248.051 568.864V567.78C259.64 567.78 272.583 565.034 278.564 563.413C278.951 563.309 279.221 562.954 279.221 562.542V530.753ZM218.821 530.753C218.821 530.16 219.382 529.707 219.98 529.836C226.553 531.248 238.981 533.142 249.207 533.525L249.248 532.443C239.097 532.063 226.732 530.178 220.208 528.776C218.953 528.506 217.737 529.451 217.737 530.753V562.542C217.737 563.432 218.324 564.223 219.194 564.459C225.221 566.092 238.268 568.864 249.991 568.864V567.78C238.402 567.78 225.459 565.034 219.478 563.413C219.091 563.309 218.821 562.954 218.821 562.542V530.753ZM286.993 482.186C287.58 481.994 288.183 482.431 288.183 483.048V532.59C288.183 533.441 287.051 533.875 286.547 533.07C284.467 529.744 281.07 522.725 280.2 514.701L280.196 514.671V485.064C280.196 484.672 280.449 484.324 280.822 484.202L286.993 482.186ZM287.099 531.891V483.292L281.281 485.192V514.613C282.084 521.96 285.067 528.461 287.099 531.891ZM286.754 423.079C286.987 422.02 288.548 422.189 288.548 423.274V474.436C288.548 475.173 288.144 475.849 287.495 476.199L282.882 478.686C281.546 479.406 279.926 478.439 279.926 476.923V454.358C279.926 454.213 279.941 454.069 279.972 453.928L286.754 423.079ZM287.463 474.436V424.901L281.031 454.161C281.017 454.226 281.01 454.292 281.01 454.358V476.923C281.01 477.619 281.754 478.063 282.367 477.733L286.98 475.245C287.278 475.085 287.463 474.775 287.463 474.436ZM287.29 519.881L280.466 515.132L281.086 514.243L287.909 518.992L287.29 519.881ZM211.042 482.185C210.455 481.993 209.852 482.43 209.852 483.047V532.589C209.852 533.44 210.984 533.874 211.489 533.069C213.569 529.743 216.965 522.724 217.836 514.7L217.839 514.67V485.063C217.839 484.671 217.586 484.323 217.213 484.201L211.042 482.185ZM210.937 531.89V483.29L216.754 485.191V514.611C215.951 521.958 212.968 528.46 210.937 531.89ZM211.285 423.078C211.052 422.019 209.491 422.188 209.491 423.273V474.435C209.491 475.171 209.895 475.848 210.543 476.198L215.157 478.685C216.493 479.405 218.113 478.438 218.113 476.922V454.356C218.113 454.211 218.097 454.067 218.066 453.926L211.285 423.078ZM210.575 474.435V424.899L217.007 454.159C217.021 454.224 217.028 454.29 217.028 454.356V476.922C217.028 477.618 216.284 478.062 215.672 477.731L211.058 475.244C210.761 475.084 210.575 474.773 210.575 474.435ZM210.749 519.879L217.573 515.13L216.953 514.241L210.129 518.99L210.749 519.879ZM279.977 405.439C273.732 402.797 262.365 399.34 249.08 399.183L249.093 398.099C262.547 398.258 274.054 401.756 280.4 404.441C282.791 405.453 284.289 407.735 284.579 410.262L285.262 416.206C285.351 416.978 285.324 417.759 285.183 418.523L280.706 442.791C279.99 446.675 276.496 449.421 272.55 449.203L249.021 447.905L249.08 446.823L272.61 448.121C276.011 448.309 279.022 445.942 279.639 442.595L284.117 418.327C284.238 417.668 284.261 416.995 284.185 416.329L283.502 410.385C283.25 408.194 281.962 406.279 279.977 405.439ZM218.125 405.439C224.37 402.797 235.737 399.34 249.021 399.183L249.008 398.099C235.554 398.258 224.048 401.756 217.702 404.441C215.311 405.453 213.812 407.735 213.522 410.262L212.839 416.206C212.75 416.978 212.777 417.759 212.918 418.523L217.396 442.791C218.112 446.675 221.605 449.421 225.552 449.203L249.081 447.905L249.021 446.823L225.492 448.121C222.091 448.309 219.08 445.942 218.462 442.595L213.985 418.327C213.863 417.668 213.84 416.995 213.917 416.329L214.599 410.385C214.851 408.194 216.14 406.279 218.125 405.439ZM254.457 357.215C252.694 356.881 250.903 356.713 249.109 356.713H246.46V355.629H249.109C250.971 355.629 252.83 355.804 254.659 356.151L258.084 356.8C260.578 357.273 263.002 358.061 265.296 359.149L277.146 364.764C277.95 365.145 278.724 365.587 279.461 366.085C282.596 368.204 284.962 371.28 286.205 374.852L288.406 381.174L290.032 385.236C291.439 388.751 292.162 392.503 292.162 396.289V409.552C292.162 411.191 292.014 412.826 291.719 414.437L291.368 416.361C291.319 416.628 291.294 416.899 291.294 417.17V422.087C291.294 422.613 291.798 422.992 292.303 422.848C292.558 422.775 292.825 422.757 293.087 422.795L294.688 423.026C296.092 423.229 297.455 423.733 298.624 424.572C299.908 425.494 300.929 426.359 302.153 427.749C302.494 428.137 302.672 428.634 302.672 429.139C302.672 430.587 301.265 431.62 299.881 431.187L297.572 430.463C297.264 430.366 296.968 430.231 296.693 430.062L291.602 426.938C291.475 426.86 291.312 426.953 291.314 427.102L292.328 494.399V539.025L288.489 566.81C287.946 570.739 286.214 574.409 283.525 577.327C280.75 580.338 277.096 582.398 273.082 583.214L262.477 585.369L262.476 585.37L254.873 586.928C252.905 587.331 250.9 587.534 248.891 587.534H246.333V586.451H248.891C250.827 586.451 252.758 586.255 254.655 585.866L262.26 584.308H262.26L272.866 582.153C276.657 581.382 280.107 579.436 282.728 576.593C285.266 573.837 286.902 570.372 287.414 566.662L291.243 538.951V494.404L290.23 427.118C290.215 426.114 291.314 425.489 292.17 426.014L297.261 429.139C297.46 429.262 297.674 429.359 297.897 429.429L300.206 430.153C300.891 430.367 301.588 429.856 301.588 429.139C301.588 428.886 301.498 428.646 301.339 428.465C300.177 427.146 299.22 426.334 297.992 425.452C296.98 424.726 295.786 424.279 294.533 424.098L292.932 423.867C292.821 423.851 292.708 423.859 292.601 423.89C291.403 424.232 290.21 423.333 290.21 422.087V417.17C290.21 416.834 290.24 416.497 290.301 416.166L290.653 414.242C290.936 412.695 291.078 411.125 291.078 409.552V396.289C291.078 392.641 290.381 389.026 289.025 385.639L287.39 381.553L285.181 375.208C284.014 371.856 281.795 368.971 278.853 366.982C278.162 366.515 277.436 366.101 276.682 365.743L264.832 360.128C262.621 359.081 260.285 358.32 257.882 357.864L254.457 357.215ZM246.589 356.704L246.386 355.639L240.262 356.8C237.767 357.273 235.343 358.062 233.049 359.149L221.199 364.764C220.395 365.145 219.622 365.587 218.885 366.085C215.749 368.204 213.384 371.28 212.14 374.852L209.939 381.174L208.313 385.237C206.906 388.752 206.183 392.503 206.183 396.289V409.552C206.183 411.191 206.331 412.826 206.626 414.437L206.978 416.361C207.026 416.628 207.051 416.899 207.051 417.17V422.087C207.051 422.613 206.548 422.992 206.042 422.848C205.787 422.775 205.52 422.757 205.258 422.795L203.657 423.026C202.253 423.229 200.89 423.733 199.721 424.573C198.437 425.494 197.417 426.359 196.192 427.749C195.851 428.137 195.673 428.634 195.673 429.139C195.673 430.587 197.08 431.62 198.464 431.187L200.773 430.463C201.081 430.366 201.377 430.231 201.652 430.062L206.743 426.938C206.87 426.86 207.033 426.953 207.031 427.102L206.017 494.399V539.025L209.857 566.81C210.399 570.739 212.131 574.409 214.82 577.327C217.595 580.338 221.249 582.398 225.264 583.214L235.868 585.369L235.869 585.37L246.379 587.523L246.597 586.462L236.086 584.308H236.085L225.479 582.153C221.688 581.382 218.238 579.436 215.617 576.593C213.079 573.837 211.444 570.372 210.931 566.662L207.102 538.951V494.404L208.115 427.118C208.13 426.114 207.031 425.489 206.176 426.014L201.085 429.139C200.885 429.262 200.671 429.359 200.448 429.429L198.139 430.153C197.455 430.367 196.757 429.856 196.757 429.139C196.757 428.886 196.847 428.646 197.006 428.465C198.168 427.146 199.125 426.334 200.354 425.452C201.365 424.726 202.559 424.279 203.812 424.098L205.413 423.868C205.524 423.852 205.637 423.859 205.744 423.89C206.942 424.232 208.135 423.333 208.135 422.087V417.17C208.135 416.834 208.105 416.497 208.044 416.166L207.692 414.242C207.409 412.695 207.267 411.125 207.267 409.552V396.289C207.267 392.641 207.964 389.026 209.32 385.639L210.955 381.553L213.164 375.208C214.331 371.856 216.55 368.971 219.492 366.982C220.183 366.515 220.909 366.101 221.663 365.744L233.514 360.128C235.724 359.081 238.06 358.32 240.463 357.864L246.589 356.704Z" fill="#FFEA30"/>
</g>
<defs>
<clipPath id="clip0_1_334">
<rect width="108" height="54" fill="white" transform="translate(195 353)"/>
</clipPath>
</defs>
</svg>
