<svg width="168" height="42" viewBox="0 0 168 42" fill="none" xmlns="http://www.w3.org/2000/svg">
<g clip-path="url(#clip0_1_636)">
<path d="M16.4532 0.755615C7.88449 0.755615 0.937988 7.70212 0.937988 16.2709C0.937988 23.956 6.53154 30.3206 13.8656 31.5531V19.5077H10.1229V15.1732H13.8656V11.977C13.8656 8.26847 16.1306 6.24756 19.4393 6.24756C21.024 6.24756 22.3858 6.36564 22.7812 6.41765V10.294L20.4864 10.2951C18.6873 10.2951 18.3406 11.1498 18.3406 12.4045V15.1709H22.6331L22.0732 19.5056H18.3406V31.6568C26.017 30.7225 31.9683 24.1957 31.9683 16.2664C31.9683 7.70212 25.0218 0.755615 16.4532 0.755615Z" fill="black"/>
</g>
<g clip-path="url(#clip1_1_636)">
<path d="M58.4531 0.691406C49.8857 0.691406 42.938 7.63909 42.938 16.2066C42.938 24.774 49.8857 31.7217 58.4531 31.7217C67.0206 31.7217 73.9683 24.774 73.9683 16.2066C73.9683 7.63909 67.0206 0.691406 58.4531 0.691406ZM67.3085 19.8796C67.2654 20.828 67.1146 21.4755 66.8944 22.0423C66.4316 23.239 65.4856 24.185 64.2889 24.6479C63.7223 24.868 63.0746 25.0186 62.1264 25.0619C61.1763 25.1052 60.8729 25.1157 58.4533 25.1157C56.0336 25.1157 55.7303 25.1052 54.7801 25.0619C53.832 25.0186 53.1842 24.868 52.6177 24.6479C52.023 24.4242 51.4846 24.0735 51.0396 23.6202C50.5864 23.1753 50.2358 22.6367 50.0121 22.0423C49.7919 21.4757 49.6411 20.828 49.598 19.8799C49.5542 18.9296 49.544 18.6261 49.544 16.2066C49.544 13.7871 49.5542 13.4836 49.5978 12.5335C49.6409 11.5851 49.7914 10.9376 50.0116 10.3708C50.2353 9.77641 50.5862 9.23781 51.0396 8.79297C51.4844 8.33961 52.023 7.989 52.6174 7.76527C53.1842 7.5451 53.8317 7.39453 54.7801 7.35121C55.7301 7.30788 56.0336 7.29747 58.4531 7.29747C60.8726 7.29747 61.1761 7.30788 62.1262 7.35144C63.0746 7.39453 63.7221 7.5451 64.2889 7.76503C64.8833 7.98875 65.4219 8.33961 65.867 8.79297C66.3201 9.23804 66.6709 9.77641 66.8944 10.3708C67.1149 10.9376 67.2654 11.5851 67.3087 12.5335C67.352 13.4836 67.3622 13.7871 67.3622 16.2066C67.3622 18.6261 67.352 18.9296 67.3085 19.8796Z" fill="black"/>
<path d="M58.4531 21.0549C60.5953 21.0549 62.3319 19.3183 62.3319 17.1762C62.3319 15.034 60.5953 13.2974 58.4531 13.2974C56.3109 13.2974 54.5743 15.034 54.5743 17.1762C54.5743 19.3183 56.3109 21.0549 58.4531 21.0549Z" fill="black"/>
<path d="M62.8167 12.3278C63.6201 12.3278 64.2713 11.6766 64.2713 10.8732C64.2713 10.0699 63.6201 9.4187 62.8167 9.4187C62.0134 9.4187 61.3622 10.0699 61.3622 10.8732C61.3622 11.6766 62.0134 12.3278 62.8167 12.3278Z" fill="black"/>
</g>
<g clip-path="url(#clip2_1_636)">
<path d="M100.453 0.691406C91.8857 0.691406 84.938 7.63909 84.938 16.2066C84.938 24.774 91.8857 31.7217 100.453 31.7217C109.021 31.7217 115.968 24.774 115.968 16.2066C115.968 7.63909 109.021 0.691406 100.453 0.691406ZM107.537 12.7885C107.544 12.9412 107.547 13.0946 107.547 13.2487C107.547 17.9544 103.965 23.3808 97.415 23.3811H97.4153H97.415C95.4039 23.3811 93.5325 22.7916 91.9565 21.7814C92.2351 21.8142 92.5187 21.8306 92.8059 21.8306C94.4744 21.8306 96.01 21.2615 97.2289 20.3063C95.67 20.2774 94.3556 19.2477 93.902 17.8328C94.1191 17.8744 94.3423 17.8971 94.5713 17.8971C94.8963 17.8971 95.2112 17.8533 95.5104 17.7717C93.8809 17.4455 92.6534 16.0054 92.6534 14.2809C92.6534 14.2647 92.6534 14.2504 92.6539 14.2355C93.1338 14.5022 93.6825 14.6627 94.2668 14.6807C93.3106 14.0427 92.6821 12.9521 92.6821 11.7165C92.6821 11.0641 92.8584 10.4528 93.1643 9.92652C94.9204 12.0813 97.545 13.4985 100.505 13.6473C100.444 13.3865 100.412 13.1147 100.412 12.8353C100.412 10.8695 102.007 9.2745 103.974 9.2745C104.998 9.2745 105.923 9.70746 106.573 10.3997C107.384 10.2397 108.146 9.94329 108.835 9.53539C108.568 10.3666 108.004 11.0641 107.268 11.5051C107.989 11.4189 108.675 11.2279 109.313 10.9442C108.837 11.6585 108.233 12.2859 107.537 12.7885Z" fill="black"/>
</g>
<g clip-path="url(#clip3_1_636)">
<path d="M142.453 0.691406C133.886 0.691406 126.938 7.63909 126.938 16.2066C126.938 24.774 133.886 31.7217 142.453 31.7217C151.021 31.7217 157.968 24.774 157.968 16.2066C157.968 7.63909 151.021 0.691406 142.453 0.691406ZM137.945 24.146H134.166V12.7778H137.945V24.146ZM136.055 11.2255H136.031C134.763 11.2255 133.943 10.3526 133.943 9.26172C133.943 8.14618 134.788 7.29747 136.081 7.29747C137.373 7.29747 138.169 8.14618 138.193 9.26172C138.193 10.3526 137.373 11.2255 136.055 11.2255ZM151.57 24.146H147.791V18.0643C147.791 16.5359 147.244 15.4935 145.877 15.4935C144.833 15.4935 144.212 16.1966 143.938 16.8754C143.839 17.1183 143.814 17.4578 143.814 17.7975V24.146H140.036C140.036 24.146 140.085 13.8444 140.036 12.7778H143.814V14.3874C144.316 13.6128 145.215 12.5111 147.219 12.5111C149.706 12.5111 151.57 14.1358 151.57 17.6275V24.146Z" fill="black"/>
</g>
<defs>
<clipPath id="clip0_1_636">
<rect width="32" height="32" fill="white" transform="translate(0.453125)"/>
</clipPath>
<clipPath id="clip1_1_636">
<rect width="32" height="32" fill="white" transform="translate(42.4531)"/>
</clipPath>
<clipPath id="clip2_1_636">
<rect width="32" height="32" fill="white" transform="translate(84.4531)"/>
</clipPath>
<clipPath id="clip3_1_636">
<rect width="32" height="32" fill="white" transform="translate(126.453)"/>
</clipPath>
</defs>
</svg>
