<svg width="1433" height="693" viewBox="0 0 1433 693" fill="none" xmlns="http://www.w3.org/2000/svg">
<path opacity="0.3" d="M324.186 139.042L1382.29 575.659M695.044 224.165L660.207 209.239M697.142 162.589L698.656 173.043M406.029 394.209L385.665 368.697M321.907 395.699L336.187 396.815M845.642 498.955L924.099 532.114M936.632 537.407L1010.52 568.632M791.023 515.647L851.168 541.063M866.922 547.721L902.874 562.915M1022.34 613.578L981.61 595.976M1027.52 647.432L979.696 627.222M841.136 569.553L883.969 587.651M959.261 586.746L921.535 570.801M952.792 616.739L907.171 597.459M776.666 255.415L787.369 270.35M799.49 281.362L809.76 295.628M753.115 184.867L722.214 224.041M879.763 221.528L911.67 339.363M810.172 192.03L882.327 327.634M1020.28 401.362L995.192 390.76C994.996 390.676 994.905 390.501 994.975 390.343L1002.64 373.911L1020.28 401.362ZM1020.28 401.362L1033.55 386.949C1033.69 386.796 1033.97 386.749 1034.18 386.841L1060.31 397.881M1020.28 401.362L1060.31 397.881M1020.28 401.362L1041.4 410.288M1060.31 397.881L1087.94 409.556C1088.25 409.69 1088.26 410.024 1087.94 410.161L1065.22 420.145C1065.07 420.21 1064.88 420.212 1064.73 420.148L1041.4 410.288M1060.31 397.881L1041.4 410.288M1052.56 365.82L1038.36 381.212M1086.89 380.481L1067.14 393.524M1133.47 399.713L1133.68 394.228M1128.22 352.785L1098.86 372.712M1082.05 333.613L1061.76 356.696M1004.74 345.318L1012.98 343.289M934.914 244.367L948.195 376.691M654.664 550.856L435.975 294.608C422.781 279.042 406.382 265.143 387.432 253.374L654.664 550.856ZM1 1L85.5341 36.7251C115.824 49.5261 149.574 57.3215 184.415 59.5644L765.222 96.9522L1 1ZM1085.07 550.263L667.861 373.947C665.736 373.048 663.358 374.791 664.588 376.346L755.539 491.34C762.281 499.862 771.957 506.938 783.61 511.861L1085.07 550.263ZM726.49 184.961L698.81 173.1C698.696 173.051 698.549 173.079 698.482 173.163L695.929 176.355C695.862 176.439 695.9 176.546 696.014 176.596L723.695 188.456L726.49 184.961ZM723.982 188.687L697.422 177.308C697.307 177.259 697.161 177.287 697.094 177.371L694.541 180.563C694.474 180.647 694.512 180.754 694.627 180.803L720.433 191.862L723.982 188.687ZM720.838 192.03L696.005 181.389C695.89 181.34 695.744 181.368 695.677 181.452L693.124 184.644C693.057 184.728 693.095 184.836 693.21 184.885L718.043 195.526L720.838 192.03ZM717.911 195.693L694.742 185.766C694.628 185.717 694.481 185.745 694.414 185.829L691.861 189.021C691.794 189.105 691.833 189.213 691.947 189.261L715.116 199.189L717.911 195.693ZM715.053 199.273L693.76 190.151C693.646 190.102 693.499 190.13 693.433 190.214L690.879 193.406C690.813 193.49 690.851 193.598 690.965 193.647L712.252 202.768L715.053 199.273ZM712.189 202.849L692.896 194.584C692.782 194.535 692.635 194.563 692.568 194.647L690.015 197.839C689.948 197.923 689.986 198.03 690.101 198.08L709.387 206.345L712.189 202.849ZM706.467 210.007L690.668 203.238C690.554 203.189 690.407 203.217 690.34 203.301L687.787 206.494C687.72 206.577 687.758 206.685 687.873 206.734L703.673 213.502L706.467 210.007ZM703.673 213.503L689.932 207.617C689.818 207.568 689.671 207.596 689.604 207.68L687.051 210.872C686.984 210.956 687.022 211.064 687.137 211.112L700.871 216.998L703.673 213.503ZM700.808 217.081L688.544 211.826C688.429 211.777 688.282 211.805 688.215 211.889L685.662 215.082C685.595 215.165 685.634 215.272 685.748 215.322L698.012 220.577L700.808 217.081ZM697.949 220.659L687.058 215.993C686.944 215.943 686.796 215.972 686.73 216.055L684.177 219.248C684.109 219.331 684.148 219.439 684.262 219.488L695.153 224.154L697.949 220.659ZM709.325 206.427L691.474 198.779C691.36 198.73 691.213 198.758 691.146 198.842L688.593 202.034C688.526 202.118 688.565 202.225 688.679 202.274L706.53 209.923L709.325 206.427ZM352.44 417.202L336.259 396.93C336.192 396.847 336.231 396.739 336.345 396.69L340.709 394.824C340.824 394.775 340.97 394.803 341.037 394.887L357.218 415.159L352.44 417.202ZM357.536 415.364L342.011 395.913C341.944 395.83 341.983 395.722 342.097 395.673L346.461 393.807C346.575 393.758 346.722 393.786 346.788 393.87L361.875 412.771L357.536 415.364ZM362.107 413.067L347.589 394.879C347.523 394.795 347.561 394.688 347.676 394.639L352.039 392.773C352.153 392.724 352.3 392.752 352.367 392.836L366.884 411.023L362.107 413.067ZM367.113 410.928L353.57 393.96C353.503 393.876 353.541 393.769 353.656 393.72L358.02 391.854C358.134 391.805 358.281 391.833 358.347 391.917L371.891 408.885L367.113 410.928ZM372.003 408.835L359.558 393.244C359.491 393.16 359.53 393.053 359.644 393.004L364.008 391.138C364.122 391.089 364.269 391.118 364.336 391.201L376.78 406.792L372.003 408.835ZM376.897 406.741L365.622 392.615C365.555 392.531 365.594 392.424 365.707 392.375L370.071 390.509C370.186 390.46 370.332 390.488 370.399 390.572L381.675 404.698L376.897 406.741ZM386.678 402.556L377.445 390.988C377.377 390.904 377.417 390.796 377.53 390.747L381.894 388.881C382.009 388.832 382.155 388.86 382.222 388.944L391.456 400.512L386.678 402.556ZM391.455 400.515L383.425 390.455C383.358 390.371 383.397 390.264 383.511 390.215L387.874 388.349C387.989 388.3 388.136 388.328 388.203 388.412L396.233 398.472L391.455 400.515ZM396.35 398.423L389.181 389.441C389.114 389.357 389.152 389.25 389.267 389.201L393.63 387.335C393.744 387.286 393.892 387.314 393.958 387.398L401.128 396.379L396.35 398.423ZM401.236 396.33L394.87 388.354C394.803 388.271 394.842 388.163 394.956 388.114L399.319 386.248C399.434 386.199 399.581 386.227 399.648 386.311L406.014 394.287L401.236 396.33ZM381.789 404.65L371.354 391.577C371.287 391.493 371.325 391.385 371.44 391.337L375.803 389.47C375.918 389.422 376.065 389.45 376.132 389.533L386.567 402.607L381.789 404.65ZM929.485 553.265L943.968 524.392C944.017 524.29 944.185 524.244 944.31 524.3L1006.59 550.616C1006.65 550.642 1006.69 550.688 1006.7 550.739L1015.28 589.523L929.485 553.265ZM819.911 506.849L867.013 491.608C867.09 491.586 867.167 491.589 867.237 491.617L933.649 519.682C933.761 519.733 933.803 519.835 933.74 519.917L914.01 546.617L819.911 506.849ZM940.887 494.032L929.688 508.229C929.618 508.313 929.66 508.42 929.772 508.469L957.333 520.117C957.473 520.173 957.654 520.117 957.689 519.999L962.349 503.269L940.887 494.032ZM698.511 544.776L796.011 513.719C796.081 513.699 796.165 513.699 796.228 513.729L855.095 538.603C855.234 538.665 855.255 538.808 855.137 538.885L787.718 583.989L698.511 544.776ZM811.821 592.443L870.905 545.231C870.982 545.17 871.107 545.154 871.205 545.195L904.789 559.391C904.9 559.438 904.942 559.545 904.879 559.627L864.191 614.581L811.821 592.443ZM821.022 561.053L746.715 529.649L821.7 561.34L821.022 561.053ZM1033.37 684.022L1021.88 608.955C1021.87 608.899 1021.82 608.853 1021.76 608.822L982.609 592.279C982.456 592.212 982.26 592.289 982.253 592.422L977.356 662.401L1033.37 684.022ZM945.98 649.146L960.134 582.91C960.148 582.839 960.099 582.767 960.016 582.731L923.819 567.436C923.694 567.379 923.533 567.42 923.477 567.522L892.227 626.43L945.98 649.146ZM784.756 510.742L791.051 502.762C791.086 502.722 791.135 502.693 791.198 502.681L803.591 500.175C803.654 500.163 803.724 500.169 803.78 500.192L1030.42 595.976C1030.47 595.997 1030.51 596.027 1030.53 596.063L1035.94 606.112C1035.97 606.163 1035.96 606.219 1035.93 606.265L1029.08 614.954L784.756 510.742ZM860.362 489.477L864.575 484.14C864.638 484.056 864.785 484.027 864.903 484.076L1018.61 549.036C1018.72 549.082 1018.76 549.189 1018.69 549.271L1013.38 556.016L860.362 489.477ZM962.621 503.775L1002.71 520.715C1002.77 520.741 1002.81 520.781 1002.82 520.828L1011 545.482C1011.05 545.63 1010.83 545.753 1010.65 545.676L872.134 487.135C871.967 487.064 871.974 486.885 872.148 486.825L899.64 477.246C899.709 477.221 899.793 477.223 899.863 477.252L940.95 494.615L962.621 503.775ZM761.799 259.615L760.29 261.53C760.227 261.614 760.262 261.721 760.381 261.77L813.61 284.265C813.722 284.313 813.868 284.285 813.938 284.201L815.727 281.931L761.799 259.615ZM789.605 287.306L788.096 289.221C788.026 289.305 788.068 289.413 788.179 289.461L831.523 307.778C831.642 307.827 831.788 307.798 831.851 307.714L833.64 305.445L789.605 287.306ZM719.385 223.122L811.262 318.252C811.304 318.293 811.36 318.328 811.416 318.353L841.96 331.26C842.366 331.434 842.834 331.115 842.631 330.803L834.946 319.225C834.743 318.913 835.211 318.595 835.617 318.768L846.774 323.48C846.865 323.519 846.935 323.58 846.977 323.653L853.879 336.213C853.921 336.286 853.991 336.347 854.089 336.386L875.124 345.278L719.385 223.122ZM773.166 211.054L938.232 280.814C938.463 280.91 938.756 280.853 938.889 280.685L1027.59 168.223L773.166 211.054ZM914.367 346.301L919.278 360.664C919.313 360.772 919.278 360.886 919.187 360.972L916.491 363.387L914.367 346.301ZM916.33 363.326L909.427 344.564C909.372 344.412 909.595 344.287 909.777 344.368L928.493 352.521C928.612 352.573 928.689 352.658 928.717 352.757L933.258 370.283L916.33 363.326ZM852.384 315.493L945.33 352.92C945.561 353.012 945.847 352.953 945.973 352.788L1048.85 222.36L852.384 315.493ZM1000.33 372.938L991.915 391.305C991.845 391.463 991.936 391.637 992.132 391.72L1065.58 422.76C1065.73 422.821 1065.9 422.823 1066.05 422.764L1093.39 411.877L1000.33 372.938ZM1017.13 350.996L1008.26 368.148C1008.17 368.309 1008.26 368.491 1008.47 368.576L1095.24 405.248C1095.38 405.31 1095.56 405.311 1095.72 405.248L1120.7 394.767L1017.13 350.996ZM1007.96 352.699L994.563 369.682C994.437 369.85 994.514 370.064 994.745 370.161L1098.88 414.168C1099.1 414.265 1099.39 414.208 1099.53 414.04L1105.69 406.224L1007.96 352.699ZM1009.87 347.93L1001.47 368.625C1001.41 368.781 1001.5 368.948 1001.69 369.029L1096.99 409.304C1097.13 409.363 1097.3 409.366 1097.45 409.311L1127.8 397.768L1009.87 347.93ZM1019.07 327.196L1004.82 345.269C1004.69 345.437 1004.76 345.652 1004.99 345.748L1133.39 400.011C1133.62 400.108 1133.91 400.05 1134.05 399.882L1140.33 391.913L1019.07 327.196ZM1025.32 309.871L1013 343.076C1012.94 343.23 1013.03 343.393 1013.22 343.472L1133.55 394.324C1133.7 394.385 1133.87 394.387 1134.02 394.329L1181.01 375.665L1025.32 309.871ZM1209.96 83.8243L1038.86 300.749C1038.73 300.917 1038.81 301.132 1039.04 301.228L1185.42 363.092C1185.65 363.189 1185.94 363.131 1186.07 362.963L1431 52.4326L1209.96 83.8243ZM1216.07 61.7547L1025.63 303.191C1025.5 303.359 1025.58 303.574 1025.81 303.671L1189.14 372.697C1189.37 372.794 1189.66 372.736 1189.8 372.568L1380.23 131.132L1216.07 61.7547ZM1026.36 303.944L1021.03 306.856C1020.76 307.007 1020.79 307.315 1021.08 307.441L1189.11 378.452C1189.44 378.589 1189.85 378.411 1189.83 378.136L1189.59 372.9L1026.36 303.944ZM1034.87 313.367L1022.05 340.046C1021.98 340.205 1022.07 340.382 1022.27 340.466L1134.55 387.917C1134.7 387.979 1134.88 387.98 1135.02 387.918L1173.57 371.986L1034.87 313.367ZM995.59 150.279L931.176 231.952C931.043 232.12 930.75 232.178 930.519 232.081L727.433 146.254C727.203 146.157 727.119 145.942 727.252 145.774L791.673 64.101L995.59 150.279ZM734.231 159.996L875.655 345.941C875.697 345.997 875.76 346.043 875.837 346.074L947.81 376.491C948.041 376.588 948.334 376.531 948.467 376.363L1034.9 266.778C1034.92 266.747 1034.94 266.715 1034.95 266.681L1073.89 142.932L734.231 159.996ZM734.07 159.906L934.683 244.688C934.914 244.785 935.207 244.727 935.34 244.559L1016.68 141.431L734.07 159.906ZM813.107 263.946L941.488 318.203C941.718 318.301 942.019 318.241 942.144 318.071L1044.6 183.995L813.107 263.946ZM832.012 288.439L943.29 335.467C943.521 335.564 943.814 335.506 943.947 335.338L1050.2 200.623L832.012 288.439ZM751.257 183.085L719.804 222.961C719.671 223.129 719.748 223.343 719.979 223.44L811.87 262.272L751.257 183.085ZM607.157 564.92L796.975 506.814C797.038 506.793 797.122 506.796 797.185 506.824L1026.08 603.56C1026.14 603.586 1026.18 603.627 1026.2 603.678L1048.13 692L607.157 564.92ZM736.879 179.649L732.324 177.699C732.212 177.65 732.065 177.678 731.995 177.761L670.517 254.642C670.45 254.725 670.303 254.753 670.189 254.704L635.837 239.986C635.723 239.937 635.684 239.829 635.751 239.746L697.23 162.865C697.296 162.782 697.258 162.674 697.144 162.625L692.973 160.838C692.859 160.789 692.712 160.818 692.645 160.901L628.595 240.997C628.527 241.081 628.566 241.189 628.68 241.237L672.583 260.048C672.698 260.097 672.845 260.069 672.912 259.985L736.963 179.889C737.032 179.806 736.991 179.698 736.879 179.649ZM345.178 424.796L342.517 421.462C342.451 421.378 342.489 421.271 342.603 421.222L447.682 376.283C447.797 376.233 447.835 376.126 447.769 376.043L427.689 350.885C427.622 350.802 427.475 350.773 427.361 350.823L322.281 395.762C322.167 395.811 322.02 395.782 321.953 395.699L319.515 392.645C319.449 392.561 319.487 392.453 319.601 392.404L429.076 345.585C429.191 345.536 429.338 345.564 429.405 345.648L455.068 377.8C455.134 377.883 455.096 377.991 454.981 378.04L345.506 424.859C345.392 424.908 345.245 424.88 345.178 424.796ZM812.08 503.37L866.545 487.767C866.615 487.748 866.692 487.752 866.755 487.778L1011 548.739C1011.06 548.765 1011.1 548.806 1011.11 548.852L1024.77 593.24C1024.81 593.394 1024.59 593.511 1024.41 593.435L812.045 503.686C811.87 503.612 811.891 503.424 812.08 503.37ZM807.21 308.248L813.198 315.427C813.219 315.452 813.246 315.473 813.281 315.488L831.334 323.118C831.544 323.206 831.781 323.038 831.669 322.882L826.611 316.095C826.59 316.066 826.555 316.043 826.52 316.027L807.539 308.004C807.322 307.914 807.084 308.093 807.21 308.248ZM775.765 271.72L789.709 287.26C789.73 287.283 789.758 287.302 789.793 287.316L833.737 305.888C833.947 305.976 834.178 305.81 834.066 305.655L824.194 291.834C824.173 291.805 824.138 291.78 824.096 291.763L776.086 271.472C775.863 271.379 775.625 271.566 775.765 271.72ZM761.75 259.479L746.555 243.082C746.415 242.927 746.653 242.738 746.876 242.831L804.688 267.265C804.723 267.281 804.758 267.303 804.779 267.33L816.348 282.195C816.474 282.351 816.237 282.524 816.02 282.434L761.834 259.533C761.799 259.519 761.771 259.501 761.75 259.479ZM869.885 328.67L901.093 341.859C901.191 341.9 901.26 341.964 901.302 342.041L904.202 347.768C904.279 347.922 904.048 348.063 903.852 347.981L874.677 335.65C874.601 335.618 874.538 335.571 874.496 335.515L869.556 328.906C869.438 328.751 869.675 328.581 869.885 328.67Z" stroke="#4E66FF"/>
</svg>
